<svg id="Layer_1" data-name="Layer 1" xmlns="http://www.w3.org/2000/svg" viewBox="0 0 568 142.91"><defs><style>.cls-1{fill:#3068f0;}.cls-2{fill:#9e9e9e;}.cls-3{fill:#ff9b20;}.cls-4,.cls-6{fill:none;stroke-linecap:square;}.cls-4{stroke:#4a4a4a;}.cls-5{fill:#4a4a4a;fill-rule:evenodd;}.cls-6{stroke:#000;}</style></defs><path class="cls-1" d="M28.46,74a.25.25,0,0,1-.2-.07.45.45,0,0,1-.06-.28v-.56a2.69,2.69,0,0,1-1,.8,3.1,3.1,0,0,1-1.34.28,2.84,2.84,0,0,1-2.16-.92,3.37,3.37,0,0,1,0-4.61A3.34,3.34,0,0,1,27.32,68a2.62,2.62,0,0,1,1,.74V66H28a1.85,1.85,0,0,1-.77-.11.43.43,0,0,1-.17-.38.47.47,0,0,1,.14-.37.61.61,0,0,1,.41-.13H29a.63.63,0,0,1,.3.07.27.27,0,0,1,.09.22V73h.31a.89.89,0,0,1,.48.11.44.44,0,0,1,.15.36.47.47,0,0,1-.13.36.45.45,0,0,1-.35.13ZM24,70.92a2.06,2.06,0,0,0,2,2.15h.18a2,2,0,0,0,1.55-.63,2.15,2.15,0,0,0,.61-1.58,2.13,2.13,0,0,0-.61-1.57,2.1,2.1,0,0,0-1.55-.62,2.07,2.07,0,0,0-1.56.63A2.2,2.2,0,0,0,24,70.92Z" transform="translate(-22.68 -22.39)"/><path class="cls-1" d="M32.5,71.14a2.07,2.07,0,0,0,.66,1.52,2.47,2.47,0,0,0,1.67.54,4.11,4.11,0,0,0,1.75-.43,4.59,4.59,0,0,1,1.14-.42.46.46,0,0,1,.48.45.55.55,0,0,1-.15.36,1.6,1.6,0,0,1-.45.32,7.07,7.07,0,0,1-1.42.51,5.79,5.79,0,0,1-1.44.17,3.48,3.48,0,0,1-2.5-.9,3.16,3.16,0,0,1-.93-2.38,3.2,3.2,0,0,1,1-2.44,3.6,3.6,0,0,1,2.58-.94,3.38,3.38,0,0,1,2.39.87,2.77,2.77,0,0,1,.95,2.12.62.62,0,0,1-.16.52,1.72,1.72,0,0,1-.87.13Zm0-.9H37a2,2,0,0,0-.68-1.31,2.1,2.1,0,0,0-1.42-.49,2.46,2.46,0,0,0-1.53.47,2.26,2.26,0,0,0-.84,1.33Z" transform="translate(-22.68 -22.39)"/><path class="cls-1" d="M45.31,73a.67.67,0,0,1,.43.12.44.44,0,0,1,.15.36.47.47,0,0,1-.14.37.6.6,0,0,1-.41.12H40.87a.67.67,0,0,1-.43-.12.47.47,0,0,1-.14-.37.43.43,0,0,1,.14-.36.58.58,0,0,1,.4-.12H42V68.84H40.88a.66.66,0,0,1-.43-.13.46.46,0,0,1-.15-.37.47.47,0,0,1,.14-.37.63.63,0,0,1,.42-.12h1.08v-.47a2.16,2.16,0,0,1,.7-1.79A3.69,3.69,0,0,1,44.92,65a2.91,2.91,0,0,1,1.13.17.58.58,0,0,1,.36.54.43.43,0,0,1-.15.34.68.68,0,0,1-.41.14c-.2,0-.39,0-.59-.08a4.26,4.26,0,0,0-.8-.08,1.52,1.52,0,0,0-1.11.32A1.5,1.5,0,0,0,43,67.46v.39h2.42a.63.63,0,0,1,.42.12.46.46,0,0,1,.15.37.48.48,0,0,1-.15.37.67.67,0,0,1-.41.13H43.09V73Z" transform="translate(-22.68 -22.39)"/><path class="cls-1" d="M61.88,68.06a.85.85,0,0,1,.49.12.41.41,0,0,1,.15.36.45.45,0,0,1-.14.36A.64.64,0,0,1,62,69H59.18v2.29a2.43,2.43,0,0,0,.29,1.47,1.21,1.21,0,0,0,1,.36A4,4,0,0,0,62,72.78a4,4,0,0,1,1-.37.47.47,0,0,1,.45.47h0a.55.55,0,0,1-.16.39,1.78,1.78,0,0,1-.57.32,8.53,8.53,0,0,1-1.21.39,4.22,4.22,0,0,1-1,.13,3.24,3.24,0,0,1-1.34-.26,1.71,1.71,0,0,1-.81-.76,1.69,1.69,0,0,1-.2-.57,5.6,5.6,0,0,1-.06-1V69H57a.55.55,0,0,1-.41-.11.46.46,0,0,1-.13-.37.4.4,0,0,1,.17-.38,1.77,1.77,0,0,1,.76-.1h.77V66.3a.69.69,0,0,1,.13-.44.52.52,0,0,1,.39-.14.48.48,0,0,1,.42.17,1.73,1.73,0,0,1,.12.78v1.39Z" transform="translate(-22.68 -22.39)"/><path class="cls-1" d="M67.74,73H70a.64.64,0,0,1,.4.11.48.48,0,0,1,.12.36.51.51,0,0,1-.12.39A.67.67,0,0,1,70,74H65.5a.58.58,0,0,1-.4-.12.47.47,0,0,1-.1-.38.43.43,0,0,1,.14-.35.66.66,0,0,1,.43-.12h1.19V68.64H66.3a1.8,1.8,0,0,1-.83-.11.4.4,0,0,1-.16-.38.42.42,0,0,1,.13-.35.6.6,0,0,1,.41-.12h1.56a.45.45,0,0,1,.28.07.27.27,0,0,1,.09.21v1.16a4.63,4.63,0,0,1,1.36-1.21,3.07,3.07,0,0,1,1.51-.4,1.76,1.76,0,0,1,1,.25.72.72,0,0,1,.37.63.6.6,0,0,1-.18.44.56.56,0,0,1-.42.2,1.28,1.28,0,0,1-.53-.21,1.42,1.42,0,0,0-.66-.21A2.15,2.15,0,0,0,69.1,69a6.85,6.85,0,0,0-1.31,1.21Z" transform="translate(-22.68 -22.39)"/><path class="cls-1" d="M77.45,73h2.19a.64.64,0,0,1,.4.11.48.48,0,0,1,.12.36.51.51,0,0,1-.12.39.68.68,0,0,1-.44.1H74.3a.6.6,0,0,1-.41-.12.5.5,0,0,1-.13-.37.43.43,0,0,1,.14-.35.67.67,0,0,1,.43-.12h2.09V68.64H75.08a.61.61,0,0,1-.43-.13.44.44,0,0,1-.15-.36.43.43,0,0,1,.14-.35.6.6,0,0,1,.41-.12h2a.5.5,0,0,1,.29.07.26.26,0,0,1,.11.21Zm-1.27-7.32a2,2,0,0,1,.14-.93c.09-.13.28-.19.57-.19a.72.72,0,0,1,.56.16,2.12,2.12,0,0,1,0,1.49.78.78,0,0,1-.57.14.94.94,0,0,1-.57-.13.77.77,0,0,1-.13-.51Z" transform="translate(-22.68 -22.39)"/><path class="cls-1" d="M83.45,75.74h1.64a.52.52,0,0,1,.39.13.46.46,0,0,1,.13.37.5.5,0,0,1-.12.37.77.77,0,0,1-.45.11H82a.6.6,0,0,1-.41-.12.53.53,0,0,1,0-.75,1.32,1.32,0,0,1,.65-.11h.13V68.65h-.13a1.32,1.32,0,0,1-.65-.11.43.43,0,0,1-.17-.38.45.45,0,0,1,.14-.36.6.6,0,0,1,.41-.12h1a.52.52,0,0,1,.3.06.27.27,0,0,1,.09.22v.66a3.2,3.2,0,0,1,4.53,0h0A3.17,3.17,0,0,1,88.85,71a2.93,2.93,0,0,1-3,3,3.54,3.54,0,0,1-1.33-.26,2.59,2.59,0,0,1-1-.73ZM85.57,73a2.16,2.16,0,0,0,1.56-.6,2,2,0,0,0,.61-1.54,2.06,2.06,0,0,0-.61-1.54,2.16,2.16,0,0,0-1.56-.6,2.19,2.19,0,0,0-2.17,2.19A2.16,2.16,0,0,0,84,72.4,2.1,2.1,0,0,0,85.57,73Z" transform="translate(-22.68 -22.39)"/><path class="cls-1" d="M97.94,76.48v.81H89.3v-.81Z" transform="translate(-22.68 -22.39)"/><path class="cls-1" d="M102,70.52l-.89,3.25a.57.57,0,0,1-.2.36.66.66,0,0,1-.41.1.52.52,0,0,1-.38-.13,1,1,0,0,1-.25-.47l-1.56-5h-.07a.65.65,0,0,1-.41-.11.52.52,0,0,1-.13-.38.43.43,0,0,1,.14-.35.55.55,0,0,1,.39-.12H100a.84.84,0,0,1,.49.1.43.43,0,0,1,.13.37.53.53,0,0,1-.07.28.32.32,0,0,1-.19.15h-1l1.17,4.11.89-3a.63.63,0,0,1,.21-.36.64.64,0,0,1,.4-.11.52.52,0,0,1,.39.14,1.26,1.26,0,0,1,.25.47l.85,2.84,1.13-4.11h-.46a1.24,1.24,0,0,1-.63-.11.4.4,0,0,1-.17-.38.46.46,0,0,1,.12-.37.8.8,0,0,1,.48-.1h1.84a.39.39,0,0,1,.31.12.49.49,0,0,1,.11.35.5.5,0,0,1-.12.37.77.77,0,0,1-.47.12l-1.54,5.13a.75.75,0,0,1-.22.36.63.63,0,0,1-.4.1.56.56,0,0,1-.39-.13,1.24,1.24,0,0,1-.24-.47Z" transform="translate(-22.68 -22.39)"/><path class="cls-1" d="M108.11,71.14a2.08,2.08,0,0,0,.67,1.52,2.42,2.42,0,0,0,1.67.54,4.21,4.21,0,0,0,1.74-.43,4.59,4.59,0,0,1,1.14-.42.46.46,0,0,1,.48.45.54.54,0,0,1-.14.36,1.65,1.65,0,0,1-.46.32,7,7,0,0,1-1.41.51,5.87,5.87,0,0,1-1.45.17,3.42,3.42,0,0,1-2.49-.9,3.12,3.12,0,0,1-.94-2.38,3.2,3.2,0,0,1,1-2.44,3.6,3.6,0,0,1,2.58-.94,3.43,3.43,0,0,1,2.4.87,2.8,2.8,0,0,1,1,2.12.69.69,0,0,1-.16.52,1.77,1.77,0,0,1-.88.13h-4.75Zm0-.9h4.45a2,2,0,0,0-.68-1.31,2.1,2.1,0,0,0-1.42-.49,2.46,2.46,0,0,0-1.53.47,2.29,2.29,0,0,0-.79,1.33Z" transform="translate(-22.68 -22.39)"/><path class="cls-1" d="M118.36,66H117.2a2,2,0,0,1-.83-.11.43.43,0,0,1-.17-.38.47.47,0,0,1,.14-.37.61.61,0,0,1,.41-.13H119a.46.46,0,0,1,.28.08.23.23,0,0,1,.1.21V73h2.15a.57.57,0,0,1,.38.11.48.48,0,0,1,.12.36.51.51,0,0,1-.12.39.66.66,0,0,1-.43.1h-5a.58.58,0,0,1-.4-.12.46.46,0,0,1-.15-.37.4.4,0,0,1,.15-.35.66.66,0,0,1,.43-.12h1.89Z" transform="translate(-22.68 -22.39)"/><path class="cls-1" d="M129.28,68.09h0a.41.41,0,0,1,.13-.33.64.64,0,0,1,.4-.11.42.42,0,0,1,.39.17,1.39,1.39,0,0,1,.1.67v1.27a.44.44,0,0,1-.38.51.29.29,0,0,1-.13,0,.52.52,0,0,1-.32-.11,1.41,1.41,0,0,1-.33-.44,2.25,2.25,0,0,0-.79-.83,2.06,2.06,0,0,0-1.08-.29,2.4,2.4,0,0,0-1.73.63,2.14,2.14,0,0,0-.67,1.63,2.27,2.27,0,0,0,.64,1.66,2.23,2.23,0,0,0,1.64.65,2.9,2.9,0,0,0,1.66-.51l.35-.25a1.32,1.32,0,0,1,.69-.36.45.45,0,0,1,.48.42v.06c0,.36-.34.72-1,1.1a4.33,4.33,0,0,1-2.17.56,3.37,3.37,0,0,1-2.5-5.71l0,0a3.35,3.35,0,0,1,2.46-1,4.23,4.23,0,0,1,1,.14A6.7,6.7,0,0,1,129.28,68.09Z" transform="translate(-22.68 -22.39)"/><path class="cls-1" d="M139.21,70.84a3.09,3.09,0,0,1-1,2.39,4.06,4.06,0,0,1-5.17,0,3.36,3.36,0,0,1,0-4.75l0,0a4.06,4.06,0,0,1,5.17,0A3.09,3.09,0,0,1,139.21,70.84Zm-3.59,2.36a2.33,2.33,0,0,0,1.73-.67,2.48,2.48,0,0,0,0-3.39,2.52,2.52,0,0,0-3.45,0,2.49,2.49,0,0,0,0,3.4,2.38,2.38,0,0,0,1.72.66Z" transform="translate(-22.68 -22.39)"/><path class="cls-1" d="M146.56,70.19a3.43,3.43,0,0,0-.17-1.31.65.65,0,0,0-.6-.34.93.93,0,0,0-.8.44,2.14,2.14,0,0,0-.3,1.21V73h.13a1,1,0,0,1,.55.1.43.43,0,0,1,.14.37.5.5,0,0,1-.12.37A.48.48,0,0,1,145,74h-.87a.49.49,0,0,1-.4-.13,1.09,1.09,0,0,1-.11-.59V69.65a1.24,1.24,0,0,0-.23-.81.76.76,0,0,0-.64-.3,1,1,0,0,0-.56.19,1.41,1.41,0,0,0-.44.53V73H142a1,1,0,0,1,.55.1.4.4,0,0,1,.14.37.6.6,0,0,1-.11.39.7.7,0,0,1-.45.1h-1.81a.55.55,0,0,1-.39-.12.46.46,0,0,1-.13-.37.38.38,0,0,1,.16-.37,1.2,1.2,0,0,1,.62-.1h.14V68.64h-.13a1.28,1.28,0,0,1-.64-.11.41.41,0,0,1-.18-.38.43.43,0,0,1,.14-.35.6.6,0,0,1,.41-.12h1c.15,0,.25,0,.29.07a.63.63,0,0,1,.09.33A1.69,1.69,0,0,1,143,67.5a1.38,1.38,0,0,1,.79.21,1.19,1.19,0,0,1,.46.62,2,2,0,0,1,.66-.63,1.88,1.88,0,0,1,.87-.2,1.47,1.47,0,0,1,1.29.57,3.34,3.34,0,0,1,.4,1.86V73h.11a1,1,0,0,1,.56.1.41.41,0,0,1,.15.37.5.5,0,0,1-.13.37.48.48,0,0,1-.36.12H147a.5.5,0,0,1-.4-.16.8.8,0,0,1-.13-.52Z" transform="translate(-22.68 -22.39)"/><path class="cls-1" d="M150.12,71.14a2.07,2.07,0,0,0,.66,1.52,2.47,2.47,0,0,0,1.67.54,4.11,4.11,0,0,0,1.75-.43,4.59,4.59,0,0,1,1.14-.42.47.47,0,0,1,.34.13.43.43,0,0,1,.14.32.55.55,0,0,1-.15.36,1.6,1.6,0,0,1-.45.32,7.07,7.07,0,0,1-1.42.51,5.79,5.79,0,0,1-1.44.17,3.48,3.48,0,0,1-2.5-.9,3.16,3.16,0,0,1-.93-2.38,3.2,3.2,0,0,1,1-2.44,3.6,3.6,0,0,1,2.58-.94,3.38,3.38,0,0,1,2.39.87,2.76,2.76,0,0,1,1,2.12.62.62,0,0,1-.16.52,1.72,1.72,0,0,1-.87.13h-4.75Zm0-.9h4.45a2,2,0,0,0-.68-1.31,2.1,2.1,0,0,0-1.42-.49,2.46,2.46,0,0,0-1.53.47,2.29,2.29,0,0,0-.79,1.33Z" transform="translate(-22.68 -22.39)"/><path class="cls-2" d="M162.22,66a1.93,1.93,0,0,1-.23.62c-.16.32-.27.57-.35.76a11.43,11.43,0,0,0-.66,2,9.48,9.48,0,0,0,0,3.6,8.91,8.91,0,0,0,.5,1.67,11.21,11.21,0,0,0,.47,1.07,2.87,2.87,0,0,1,.3.75.4.4,0,0,1-.07.24.19.19,0,0,1-.17.08.79.79,0,0,1-.48-.22,3.7,3.7,0,0,1-.6-.71,7.88,7.88,0,0,1-1.45-4.61,8.63,8.63,0,0,1,.29-2.2,8,8,0,0,1,.91-2,5.13,5.13,0,0,1,.73-1,.94.94,0,0,1,.6-.32.19.19,0,0,1,.17.08A.41.41,0,0,1,162.22,66Z" transform="translate(-22.68 -22.39)"/><path class="cls-3" d="M171.29,74c-.1,0-.17,0-.2-.07a.45.45,0,0,1-.06-.28v-.56a2.88,2.88,0,0,1-1,.8,3.06,3.06,0,0,1-1.33.28,2.84,2.84,0,0,1-2.16-.92,3.12,3.12,0,0,1-.88-2.28,3.21,3.21,0,0,1,.93-2.36,3.34,3.34,0,0,1,3.58-.69,2.62,2.62,0,0,1,1,.74V66h-.36a1.83,1.83,0,0,1-.77-.11.41.41,0,0,1-.18-.38.47.47,0,0,1,.14-.37.61.61,0,0,1,.41-.13h1.4a.53.53,0,0,1,.3.07.27.27,0,0,1,.09.22V73h.31a.89.89,0,0,1,.48.11.44.44,0,0,1,.15.36.47.47,0,0,1-.13.36.43.43,0,0,1-.34.13Zm-4.48-3.07a2.09,2.09,0,0,0,.61,1.55,2.11,2.11,0,0,0,1.54.6,2,2,0,0,0,1.55-.63,2.35,2.35,0,0,0,0-3.15,2.12,2.12,0,0,0-1.56-.62,2.07,2.07,0,0,0-1.56.63,2.23,2.23,0,0,0-.58,1.61Z" transform="translate(-22.68 -22.39)"/><path class="cls-3" d="M175.32,71.14a2.08,2.08,0,0,0,.67,1.52,2.42,2.42,0,0,0,1.67.54,4.21,4.21,0,0,0,1.74-.43,4.59,4.59,0,0,1,1.14-.42.43.43,0,0,1,.34.13.4.4,0,0,1,.14.32.54.54,0,0,1-.14.36,1.65,1.65,0,0,1-.46.32A7.1,7.1,0,0,1,179,74a5.87,5.87,0,0,1-1.45.17,3.42,3.42,0,0,1-2.49-.9,3.12,3.12,0,0,1-.94-2.38,3.2,3.2,0,0,1,1-2.44,3.59,3.59,0,0,1,2.59-.94,3.38,3.38,0,0,1,2.39.87,2.8,2.8,0,0,1,1,2.12.69.69,0,0,1-.16.52,1.83,1.83,0,0,1-.87.13h-4.75Zm0-.9h4.45a2,2,0,0,0-.68-1.31,2.08,2.08,0,0,0-1.41-.49,2.44,2.44,0,0,0-1.54.47,2.29,2.29,0,0,0-.79,1.33Z" transform="translate(-22.68 -22.39)"/><path class="cls-3" d="M183.05,73.5V72.28a.73.73,0,0,1,.11-.43.5.5,0,0,1,.37-.13c.19,0,.33.13.44.39a2.33,2.33,0,0,0,.2.34,2,2,0,0,0,.85.6,3.53,3.53,0,0,0,1.24.22,2,2,0,0,0,1.16-.3.89.89,0,0,0,.44-.77.74.74,0,0,0-.35-.69,2.64,2.64,0,0,0-1.21-.2h-.38a3.91,3.91,0,0,1-2.12-.49,1.57,1.57,0,0,1-.74-1.41,1.6,1.6,0,0,1,.72-1.4,3.51,3.51,0,0,1,2-.5,3.89,3.89,0,0,1,1.07.15l.57.15a.78.78,0,0,0,.29-.14.77.77,0,0,1,.42-.13.37.37,0,0,1,.34.17.91.91,0,0,1,.11.51V69a1,1,0,0,1-.1.53.39.39,0,0,1-.35.16c-.14,0-.31-.12-.51-.35a4,4,0,0,0-.35-.36,2.3,2.3,0,0,0-.77-.49,3.06,3.06,0,0,0-1-.14,1.78,1.78,0,0,0-1,.28.87.87,0,0,0-.39.72.64.64,0,0,0,.4.62,5.69,5.69,0,0,0,1.74.21,4,4,0,0,1,2.08.49A1.66,1.66,0,0,1,189,72.1a1.76,1.76,0,0,1-.72,1.48,3.17,3.17,0,0,1-2,.55,5.1,5.1,0,0,1-.87-.07,6.62,6.62,0,0,1-1.2-.24,3.3,3.3,0,0,1-.41.23.74.74,0,0,1-.29.08.42.42,0,0,1-.36-.17A.73.73,0,0,1,183.05,73.5Z" transform="translate(-22.68 -22.39)"/><path class="cls-3" d="M196.3,68.06a.85.85,0,0,1,.49.12.41.41,0,0,1,.15.36.45.45,0,0,1-.14.36.67.67,0,0,1-.43.12H193.6v2.29a2.58,2.58,0,0,0,.29,1.47,1.21,1.21,0,0,0,1,.36,4,4,0,0,0,1.49-.36,4.06,4.06,0,0,1,1.08-.37.43.43,0,0,1,.32.14.48.48,0,0,1,.14.34.52.52,0,0,1-.17.39,1.78,1.78,0,0,1-.57.32A8.19,8.19,0,0,1,196,74a4.22,4.22,0,0,1-1,.13,3.24,3.24,0,0,1-1.34-.26,1.81,1.81,0,0,1-.81-.76,1.69,1.69,0,0,1-.2-.57,8.34,8.34,0,0,1,0-1V69h-1.17a.55.55,0,0,1-.41-.11.46.46,0,0,1-.13-.37.43.43,0,0,1,.17-.38,1.77,1.77,0,0,1,.76-.1h.78V66.3a.68.68,0,0,1,.12-.44.53.53,0,0,1,.4-.14.46.46,0,0,1,.41.17,1.73,1.73,0,0,1,.12.78v1.39Z" transform="translate(-22.68 -22.39)"/><path class="cls-3" d="M203.47,73h2.19a.64.64,0,0,1,.4.11.48.48,0,0,1,.12.36.51.51,0,0,1-.12.39.68.68,0,0,1-.44.1h-5.29a.6.6,0,0,1-.41-.12.47.47,0,0,1-.14-.37.43.43,0,0,1,.14-.35.67.67,0,0,1,.43-.12h2.09V68.64H201.1a.61.61,0,0,1-.43-.13.44.44,0,0,1-.15-.36.43.43,0,0,1,.14-.35.6.6,0,0,1,.41-.12h2a.5.5,0,0,1,.29.07.26.26,0,0,1,.11.21Zm-1.26-7.32a2,2,0,0,1,.13-.93c.09-.13.28-.19.57-.19a.72.72,0,0,1,.56.16,2.12,2.12,0,0,1,0,1.49.78.78,0,0,1-.57.14.94.94,0,0,1-.57-.13.76.76,0,0,1-.12-.51Z" transform="translate(-22.68 -22.39)"/><path class="cls-3" d="M208.69,73V68.65h-.13a1.28,1.28,0,0,1-.64-.11.43.43,0,0,1-.17-.38.47.47,0,0,1,.14-.37.72.72,0,0,1,.47-.11h1a.45.45,0,0,1,.28.07.23.23,0,0,1,.1.21v.46a3.61,3.61,0,0,1,1-.68,2.44,2.44,0,0,1,1-.23,2.1,2.1,0,0,1,1.62.65,2.49,2.49,0,0,1,.59,1.77V73h.33a.93.93,0,0,1,.49.11.44.44,0,0,1,.15.36.4.4,0,0,1-.16.38,1,1,0,0,1-.57.11h-1.51a1,1,0,0,1-.57-.1.51.51,0,0,1-.12-.39.41.41,0,0,1,.15-.37,1,1,0,0,1,.54-.1h.24V70.19a1.83,1.83,0,0,0-.36-1.22,1.3,1.3,0,0,0-1.06-.43,1.79,1.79,0,0,0-1.23.48,1.48,1.48,0,0,0-.54,1.17V73H210a1,1,0,0,1,.56.1.46.46,0,0,1,.14.37.51.51,0,0,1-.12.39,1,1,0,0,1-.6.1h-1.62a.63.63,0,0,1-.42-.12.47.47,0,0,1-.14-.37.42.42,0,0,1,.16-.37,1.35,1.35,0,0,1,.63-.1Z" transform="translate(-22.68 -22.39)"/><path class="cls-3" d="M221.21,73.12a4.23,4.23,0,0,1-1.22.78,3.5,3.5,0,0,1-1.36.26A2.42,2.42,0,0,1,217,73.6a2.08,2.08,0,0,1,.2-3.15,4,4,0,0,1,2.34-.6,7.16,7.16,0,0,1,.8.05,3.49,3.49,0,0,1,.82.16h0a1.33,1.33,0,0,0-1.09-1.53,1.14,1.14,0,0,0-.45,0,3.05,3.05,0,0,0-1.19.28,3,3,0,0,1-.87.29.42.42,0,0,1-.33-.16.67.67,0,0,1-.13-.41c0-.27.26-.5.76-.69a5.75,5.75,0,0,1,1.93-.28A2.15,2.15,0,0,1,222.22,70v3h.34a1.33,1.33,0,0,1,.65.1.39.39,0,0,1,.16.37.5.5,0,0,1-.13.37.6.6,0,0,1-.41.12h-1.08a.51.51,0,0,1-.31-.11.61.61,0,0,1-.17-.34ZM221.15,71a4.74,4.74,0,0,0-.72-.18,4.14,4.14,0,0,0-.7-.06,3.34,3.34,0,0,0-1.67.36,1.07,1.07,0,0,0-.6,1,.91.91,0,0,0,.38.77,1.5,1.5,0,0,0,1,.3,3,3,0,0,0,1.61-.45c.5-.31.74-.62.74-1Z" transform="translate(-22.68 -22.39)"/><path class="cls-3" d="M229.9,68.06a.78.78,0,0,1,.49.12.41.41,0,0,1,.16.36.44.44,0,0,1-.15.36.63.63,0,0,1-.4.1h-2.8v2.29a2.44,2.44,0,0,0,.3,1.47,1.21,1.21,0,0,0,1,.36,4,4,0,0,0,1.49-.36,4.52,4.52,0,0,1,1.07-.37.47.47,0,0,1,.46.46v0a.52.52,0,0,1-.17.39,1.78,1.78,0,0,1-.57.32,8.4,8.4,0,0,1-1.2.39,4.22,4.22,0,0,1-1,.13,3.24,3.24,0,0,1-1.34-.26,1.73,1.73,0,0,1-.82-.76,1.91,1.91,0,0,1-.19-.57,5.6,5.6,0,0,1-.06-1V69H225a.57.57,0,0,1-.42-.11.5.5,0,0,1-.13-.37.41.41,0,0,1,.18-.38,1.77,1.77,0,0,1,.76-.1h.77V66.3a.58.58,0,0,1,.13-.44.51.51,0,0,1,.39-.14.48.48,0,0,1,.42.17,1.6,1.6,0,0,1,.11.78v1.39Z" transform="translate(-22.68 -22.39)"/><path class="cls-3" d="M237.08,73h2.19a.6.6,0,0,1,.39.11.47.47,0,0,1,.13.36.51.51,0,0,1-.12.39.68.68,0,0,1-.44.1h-5.3a.6.6,0,0,1-.41-.12.47.47,0,0,1-.14-.37.4.4,0,0,1,.15-.35A.66.66,0,0,1,234,73h2V68.64h-1.33a.61.61,0,0,1-.43-.13.44.44,0,0,1-.15-.36.43.43,0,0,1,.14-.35.6.6,0,0,1,.41-.12h2a.5.5,0,0,1,.29.07A.26.26,0,0,1,237,68Zm-1.27-7.32a2.1,2.1,0,0,1,.13-.93c.09-.13.28-.19.57-.19a.74.74,0,0,1,.57.16,1.34,1.34,0,0,1,.13.76,1.32,1.32,0,0,1-.12.73.86.86,0,0,1-.58.14.94.94,0,0,1-.57-.13.83.83,0,0,1-.13-.51Z" transform="translate(-22.68 -22.39)"/><path class="cls-3" d="M248.43,70.84a3.09,3.09,0,0,1-1,2.39,4.06,4.06,0,0,1-5.17,0,3.36,3.36,0,0,1,0-4.75l0,0a4.07,4.07,0,0,1,5.17,0A3.11,3.11,0,0,1,248.43,70.84Zm-3.59,2.36a2.37,2.37,0,0,0,1.73-.67,2.27,2.27,0,0,0,.67-1.69,2.3,2.3,0,0,0-.68-1.7,2.53,2.53,0,0,0-3.44,0,2.5,2.5,0,0,0,0,3.4A2.38,2.38,0,0,0,244.84,73.2Z" transform="translate(-22.68 -22.39)"/><path class="cls-3" d="M250.7,73V68.65h-.13a1.28,1.28,0,0,1-.64-.11.41.41,0,0,1-.17-.38.4.4,0,0,1,.14-.37.69.69,0,0,1,.46-.11h1a.5.5,0,0,1,.29.07.23.23,0,0,1,.1.21v.46a3.61,3.61,0,0,1,1-.68,2.29,2.29,0,0,1,1-.23,2.12,2.12,0,0,1,1.63.65,2.49,2.49,0,0,1,.59,1.77V73h.32a1,1,0,0,1,.5.11.44.44,0,0,1,.15.36.4.4,0,0,1-.16.38,1,1,0,0,1-.57.11h-1.52a1,1,0,0,1-.56-.1.51.51,0,0,1-.12-.39.46.46,0,0,1,.14-.37,1,1,0,0,1,.55-.1h.24V70.19a1.79,1.79,0,0,0-.37-1.22,1.26,1.26,0,0,0-1-.43,1.75,1.75,0,0,0-1.23.48,1.48,1.48,0,0,0-.54,1.17V73H252a1,1,0,0,1,.55.1.41.41,0,0,1,.15.37.51.51,0,0,1-.12.39,1.16,1.16,0,0,1-.61.1h-1.61a.63.63,0,0,1-.42-.12.47.47,0,0,1-.14-.37.38.38,0,0,1,.16-.37,1.35,1.35,0,0,1,.63-.1Z" transform="translate(-22.68 -22.39)"/><path class="cls-2" d="M260.25,76.41a1.91,1.91,0,0,1,.23-.6q.24-.47.36-.75a13,13,0,0,0,.65-2,8.69,8.69,0,0,0,0-3.59,9.13,9.13,0,0,0-.51-1.69,10,10,0,0,0-.47-1.06,3,3,0,0,1-.29-.77.34.34,0,0,1,.07-.22.18.18,0,0,1,.18-.08.74.74,0,0,1,.48.22,3.7,3.7,0,0,1,.6.71,8.16,8.16,0,0,1,1.09,2.19,8.29,8.29,0,0,1,.06,4.63,8.63,8.63,0,0,1-.92,2,5.63,5.63,0,0,1-.74,1,.86.86,0,0,1-.57.31.23.23,0,0,1-.18-.08A.34.34,0,0,1,260.25,76.41Z" transform="translate(-22.68 -22.39)"/><path class="cls-2" d="M268.71,69.09a1.11,1.11,0,0,1,.37-.87,1.35,1.35,0,0,1,1-.35,1.42,1.42,0,0,1,1,.34,1.13,1.13,0,0,1,.37.88A1.09,1.09,0,0,1,271,70a1.58,1.58,0,0,1-1.95,0A1.15,1.15,0,0,1,268.71,69.09Zm0,3.78a1.11,1.11,0,0,1,.37-.87,1.39,1.39,0,0,1,1-.34,1.37,1.37,0,0,1,1,.33,1.13,1.13,0,0,1,.37.88,1.1,1.1,0,0,1-.37.88,1.58,1.58,0,0,1-1.95,0A1.11,1.11,0,0,1,268.71,72.87Z" transform="translate(-22.68 -22.39)"/><path class="cls-1" d="M24.64,96.74h1.64a.52.52,0,0,1,.39.13.46.46,0,0,1,.13.37.5.5,0,0,1-.12.37.77.77,0,0,1-.45.11h-3a.6.6,0,0,1-.41-.12.53.53,0,0,1,0-.75,1.32,1.32,0,0,1,.65-.11h.13V89.65H23.5a1.32,1.32,0,0,1-.65-.11.43.43,0,0,1-.17-.38.45.45,0,0,1,.14-.36.6.6,0,0,1,.41-.12h1a.52.52,0,0,1,.3.06.27.27,0,0,1,.09.22v.66a3.12,3.12,0,0,1,1-.72,3.26,3.26,0,0,1,3.51.69,3.17,3.17,0,0,1,.92,2.33A3,3,0,0,1,27,95a3.54,3.54,0,0,1-1.33-.26,3,3,0,0,1-1-.73ZM26.76,94a2.16,2.16,0,0,0,1.56-.6,2,2,0,0,0,.61-1.54,2.06,2.06,0,0,0-.61-1.54,2.16,2.16,0,0,0-1.56-.6,2.18,2.18,0,0,0-1.55,3.68A2.12,2.12,0,0,0,26.76,94Z" transform="translate(-22.68 -22.39)"/><path class="cls-1" d="M34.14,94h2.27a.6.6,0,0,1,.39.11.49.49,0,0,1,.13.36.51.51,0,0,1-.12.39.68.68,0,0,1-.44.1H31.89a.58.58,0,0,1-.4-.12.47.47,0,0,1-.14-.37.4.4,0,0,1,.15-.35.66.66,0,0,1,.43-.12h1.19V89.64h-.47a1.76,1.76,0,0,1-.82-.11.4.4,0,0,1-.17-.38.43.43,0,0,1,.14-.35.58.58,0,0,1,.4-.12h1.56a.45.45,0,0,1,.28.07.23.23,0,0,1,.1.21v1.16a4.72,4.72,0,0,1,1.35-1.21,3,3,0,0,1,1.52-.4,1.76,1.76,0,0,1,1,.25.73.73,0,0,1,.38.63.6.6,0,0,1-.19.44.54.54,0,0,1-.41.2,1.28,1.28,0,0,1-.53-.21,1.32,1.32,0,0,0-.67-.21,2.15,2.15,0,0,0-1.12.38,6.54,6.54,0,0,0-1.31,1.21Z" transform="translate(-22.68 -22.39)"/><path class="cls-1" d="M43.84,94H46a.6.6,0,0,1,.39.11.47.47,0,0,1,.13.36.51.51,0,0,1-.12.39A.67.67,0,0,1,46,95H40.7a.6.6,0,0,1-.41-.12.47.47,0,0,1-.14-.37.4.4,0,0,1,.15-.35.66.66,0,0,1,.43-.12h2.08v-4.4H41.47a.59.59,0,0,1-.42-.13.57.57,0,0,1,0-.71.6.6,0,0,1,.41-.12h2a.5.5,0,0,1,.29.07.23.23,0,0,1,.1.21Zm-1.26-7.32a2,2,0,0,1,.13-.93c.09-.13.28-.19.57-.19s.47,0,.56.16a2.12,2.12,0,0,1,0,1.49.78.78,0,0,1-.57.14.94.94,0,0,1-.57-.13.76.76,0,0,1-.12-.51Z" transform="translate(-22.68 -22.39)"/><path class="cls-1" d="M49.07,94V89.65h-.13a1.28,1.28,0,0,1-.64-.11.44.44,0,0,1-.18-.38.43.43,0,0,1,.15-.37.69.69,0,0,1,.46-.11h1a.5.5,0,0,1,.29.07.28.28,0,0,1,.1.21v.46a3.61,3.61,0,0,1,1-.68,2.29,2.29,0,0,1,1-.23,2.12,2.12,0,0,1,1.63.65,2.49,2.49,0,0,1,.59,1.77V94h.32a1,1,0,0,1,.5.11.44.44,0,0,1,.15.36.45.45,0,0,1-.16.38,1.06,1.06,0,0,1-.58.11H53a1,1,0,0,1-.56-.1.52.52,0,0,1-.13-.39.41.41,0,0,1,.15-.37A1,1,0,0,1,53,94h.24V91.19A1.81,1.81,0,0,0,52.92,90a1.26,1.26,0,0,0-1.05-.43,1.84,1.84,0,0,0-1.24.48,1.5,1.5,0,0,0-.53,1.17V94h.24a1,1,0,0,1,.55.1.41.41,0,0,1,.15.37.52.52,0,0,1-.13.39,1,1,0,0,1-.6.1H48.7a.63.63,0,0,1-.42-.12.46.46,0,0,1-.14-.37.38.38,0,0,1,.16-.37,1.2,1.2,0,0,1,.62-.1Z" transform="translate(-22.68 -22.39)"/><path class="cls-1" d="M61.88,89.06a.85.85,0,0,1,.49.12.41.41,0,0,1,.15.36.45.45,0,0,1-.14.36A.64.64,0,0,1,62,90H59.18v2.29a2.43,2.43,0,0,0,.29,1.47,1.21,1.21,0,0,0,1,.36A4,4,0,0,0,62,93.78a4,4,0,0,1,1-.37.47.47,0,0,1,.45.47h0a.55.55,0,0,1-.16.39,1.78,1.78,0,0,1-.57.32,8.53,8.53,0,0,1-1.21.39,4.22,4.22,0,0,1-1,.13,3.24,3.24,0,0,1-1.34-.26,1.71,1.71,0,0,1-.81-.76,1.69,1.69,0,0,1-.2-.57,5.6,5.6,0,0,1-.06-1V90H57a.55.55,0,0,1-.41-.11.46.46,0,0,1-.13-.37.4.4,0,0,1,.17-.38,1.77,1.77,0,0,1,.76-.1h.77V87.3a.69.69,0,0,1,.13-.44.52.52,0,0,1,.39-.14.48.48,0,0,1,.42.17,1.73,1.73,0,0,1,.12.78v1.39Z" transform="translate(-22.68 -22.39)"/><path class="cls-2" d="M69.8,87a1.93,1.93,0,0,1-.23.62c-.15.32-.27.57-.34.76a11.43,11.43,0,0,0-.66,2,8.73,8.73,0,0,0,0,3.6A8.14,8.14,0,0,0,69,95.59c.12.31.27.66.47,1.07a2.87,2.87,0,0,1,.3.75.5.5,0,0,1-.06.24.23.23,0,0,1-.18.08.69.69,0,0,1-.47-.22,3.7,3.7,0,0,1-.6-.71,7.94,7.94,0,0,1-.23-8.8A5.33,5.33,0,0,1,69,87a.92.92,0,0,1,.59-.32.23.23,0,0,1,.18.08A.33.33,0,0,1,69.8,87Z" transform="translate(-22.68 -22.39)"/><path class="cls-2" d="M75.53,89a.34.34,0,0,1-.25-.09.59.59,0,0,1-.1-.34L75,86h0a.37.37,0,0,1,.07-.25.31.31,0,0,1,.24-.08H76a.29.29,0,0,1,.23.08.33.33,0,0,1,.08.25h0L76,88.57a.59.59,0,0,1-.1.34.3.3,0,0,1-.24.09ZM78,89a.34.34,0,0,1-.25-.09.67.67,0,0,1-.1-.34L77.39,86h0a.33.33,0,0,1,.08-.25.32.32,0,0,1,.23-.08h.66a.32.32,0,0,1,.23.08.33.33,0,0,1,.08.25h0l-.22,2.53a.59.59,0,0,1-.1.34.3.3,0,0,1-.24.09Z" transform="translate(-22.68 -22.39)"/><path class="cls-3" d="M91.85,93.24,93,89.16a.62.62,0,0,1,.14-.28.46.46,0,0,1,.28-.06h.31a.46.46,0,0,1,.28.06.41.41,0,0,1,.15.25l1.33,4.11.67-5.43h-1a.83.83,0,0,1-.46-.11.4.4,0,0,1-.15-.35.43.43,0,0,1,.14-.36,1,1,0,0,1,.53-.1h2.2a.37.37,0,0,1,.27.13.5.5,0,0,1,.12.33.45.45,0,0,1-.13.35.6.6,0,0,1-.39.11h-.09l-1,6.83a.55.55,0,0,1-.07.28.23.23,0,0,1-.19.07h-.49a.5.5,0,0,1-.24-.06A.49.49,0,0,1,95,94.7L93.58,90l-1.32,4.71a.4.4,0,0,1-.12.23.53.53,0,0,1-.25,0h-.51a.25.25,0,0,1-.2-.06.53.53,0,0,1-.09-.3l-1-6.82H90a.58.58,0,0,1-.4-.12.41.41,0,0,1-.14-.34.49.49,0,0,1,.11-.33.35.35,0,0,1,.27-.13H92a.94.94,0,0,1,.52.1.43.43,0,0,1,.14.36.4.4,0,0,1-.15.35.79.79,0,0,1-.45.11h-1Z" transform="translate(-22.68 -22.39)"/><path class="cls-3" d="M99.71,92.14a2.07,2.07,0,0,0,.66,1.52,2.48,2.48,0,0,0,1.68.54,4.21,4.21,0,0,0,1.74-.43,4.59,4.59,0,0,1,1.14-.42.46.46,0,0,1,.48.45.55.55,0,0,1-.15.36,1.6,1.6,0,0,1-.45.32,7,7,0,0,1-1.41.51,5.87,5.87,0,0,1-1.45.17,3.48,3.48,0,0,1-2.5-.9,3.16,3.16,0,0,1-.93-2.38,3.2,3.2,0,0,1,1-2.44,3.6,3.6,0,0,1,2.58-.94,3.43,3.43,0,0,1,2.4.87,2.8,2.8,0,0,1,1,2.12.69.69,0,0,1-.16.52,1.77,1.77,0,0,1-.88.13Zm0-.9h4.45a2,2,0,0,0-.68-1.31,2.1,2.1,0,0,0-1.42-.49,2.46,2.46,0,0,0-1.53.47,2.29,2.29,0,0,0-.79,1.33Z" transform="translate(-22.68 -22.39)"/><path class="cls-3" d="M110,87h-1.2a2,2,0,0,1-.83-.11.43.43,0,0,1-.17-.38.47.47,0,0,1,.14-.37.61.61,0,0,1,.41-.13h2.25a.44.44,0,0,1,.29.08.23.23,0,0,1,.1.21V94h2.15a.57.57,0,0,1,.38.11.48.48,0,0,1,.12.36.51.51,0,0,1-.12.39.66.66,0,0,1-.43.1h-5a.6.6,0,0,1-.41-.12.47.47,0,0,1-.14-.37.4.4,0,0,1,.15-.35.66.66,0,0,1,.43-.12H110Z" transform="translate(-22.68 -22.39)"/><path class="cls-3" d="M120.88,89.09h0a.41.41,0,0,1,.13-.33.64.64,0,0,1,.4-.11.42.42,0,0,1,.39.17,1.39,1.39,0,0,1,.1.67v1.27a.48.48,0,0,1-.13.38.52.52,0,0,1-.39.13.51.51,0,0,1-.31-.11,1.41,1.41,0,0,1-.33-.44,2.25,2.25,0,0,0-.79-.83,2.16,2.16,0,0,0-1.08-.29,2.4,2.4,0,0,0-1.73.63,2.14,2.14,0,0,0-.67,1.63,2.27,2.27,0,0,0,.64,1.66,2.19,2.19,0,0,0,1.64.65,3,3,0,0,0,1.66-.51l.35-.25a1.25,1.25,0,0,1,.69-.36.45.45,0,0,1,.48.48c0,.36-.34.72-1,1.1a4.44,4.44,0,0,1-2.17.56,3.37,3.37,0,0,1-2.49-5.72l0,0a3.39,3.39,0,0,1,2.46-1,4.23,4.23,0,0,1,1,.14A6.7,6.7,0,0,1,120.88,89.09Z" transform="translate(-22.68 -22.39)"/><path class="cls-3" d="M130.81,91.84a3.09,3.09,0,0,1-1,2.39,4.06,4.06,0,0,1-5.17,0,3.36,3.36,0,0,1,0-4.75l0,0a4.06,4.06,0,0,1,5.17,0A3.09,3.09,0,0,1,130.81,91.84Zm-3.59,2.36a2.37,2.37,0,0,0,1.73-.67,2.47,2.47,0,0,0,0-3.39,2.53,2.53,0,0,0-3.44,0,2.5,2.5,0,0,0,0,3.4A2.36,2.36,0,0,0,127.22,94.2Z" transform="translate(-22.68 -22.39)"/><path class="cls-3" d="M138.16,91.19a3.43,3.43,0,0,0-.17-1.31.65.65,0,0,0-.6-.34.9.9,0,0,0-.8.44,2.14,2.14,0,0,0-.3,1.21V94h.13a1,1,0,0,1,.55.1.43.43,0,0,1,.14.37.5.5,0,0,1-.12.37.48.48,0,0,1-.36.12h-.86a.49.49,0,0,1-.4-.13,1.09,1.09,0,0,1-.11-.59V90.65a1.37,1.37,0,0,0-.23-.81.76.76,0,0,0-.64-.3,1,1,0,0,0-.56.19,1.41,1.41,0,0,0-.44.53V94h.25a1,1,0,0,1,.55.1.46.46,0,0,1,.14.37.6.6,0,0,1-.11.39.7.7,0,0,1-.45.1H132a.55.55,0,0,1-.39-.12.46.46,0,0,1-.13-.37.38.38,0,0,1,.16-.37,1.2,1.2,0,0,1,.62-.1h.14V89.64h-.13a1.28,1.28,0,0,1-.64-.11.41.41,0,0,1-.18-.38.43.43,0,0,1,.14-.35.6.6,0,0,1,.41-.12h1c.15,0,.25,0,.29.07a.63.63,0,0,1,.09.33,1.69,1.69,0,0,1,1.33-.58,1.38,1.38,0,0,1,.79.21,1.19,1.19,0,0,1,.46.62,2,2,0,0,1,.66-.63,1.88,1.88,0,0,1,.87-.2,1.47,1.47,0,0,1,1.28.57,3.25,3.25,0,0,1,.41,1.86V94h.11a1,1,0,0,1,.56.1.41.41,0,0,1,.15.37.5.5,0,0,1-.13.37.48.48,0,0,1-.36.12h-.83a.5.5,0,0,1-.4-.16.8.8,0,0,1-.13-.52Z" transform="translate(-22.68 -22.39)"/><path class="cls-3" d="M141.71,92.14a2.08,2.08,0,0,0,.67,1.52,2.47,2.47,0,0,0,1.67.54,4.11,4.11,0,0,0,1.75-.43,4.59,4.59,0,0,1,1.14-.42.47.47,0,0,1,.34.13.43.43,0,0,1,.14.32.55.55,0,0,1-.15.36,1.65,1.65,0,0,1-.46.32,7,7,0,0,1-1.41.51,6.3,6.3,0,0,1-1.44.17,3.48,3.48,0,0,1-2.5-.9,3.12,3.12,0,0,1-.94-2.38,3.2,3.2,0,0,1,1-2.44,3.6,3.6,0,0,1,2.58-.94,3.38,3.38,0,0,1,2.39.87,2.77,2.77,0,0,1,.95,2.12.62.62,0,0,1-.16.52,1.72,1.72,0,0,1-.87.13Zm0-.9h4.45a2,2,0,0,0-.68-1.31,2.1,2.1,0,0,0-1.42-.49,2.4,2.4,0,0,0-1.53.47,2.23,2.23,0,0,0-.78,1.33Z" transform="translate(-22.68 -22.39)"/><path class="cls-3" d="M162.69,89.06a.78.78,0,0,1,.49.12.41.41,0,0,1,.16.36.44.44,0,0,1-.15.36.66.66,0,0,1-.43.12H160v2.29a2.58,2.58,0,0,0,.29,1.47,1.21,1.21,0,0,0,1,.36,4,4,0,0,0,1.49-.36,4.52,4.52,0,0,1,1.07-.37.47.47,0,0,1,.46.46v0a.52.52,0,0,1-.17.39,1.78,1.78,0,0,1-.57.32,8.4,8.4,0,0,1-1.2.39,4.22,4.22,0,0,1-1,.13,3.31,3.31,0,0,1-1.35-.26,1.81,1.81,0,0,1-.81-.76,1.91,1.91,0,0,1-.19-.57,5.6,5.6,0,0,1-.06-1V90H157.8a.57.57,0,0,1-.42-.11.5.5,0,0,1-.13-.37.41.41,0,0,1,.18-.38,1.77,1.77,0,0,1,.76-.1H159V87.3a.58.58,0,0,1,.13-.44.51.51,0,0,1,.39-.14.48.48,0,0,1,.42.17,1.6,1.6,0,0,1,.11.78v1.39Z" transform="translate(-22.68 -22.39)"/><path class="cls-3" d="M172.82,91.84a3.09,3.09,0,0,1-1,2.39,4.07,4.07,0,0,1-5.18,0,3.38,3.38,0,0,1,0-4.78,4.1,4.1,0,0,1,5.18,0A3.13,3.13,0,0,1,172.82,91.84Zm-3.59,2.36a2.37,2.37,0,0,0,1.73-.67,2.47,2.47,0,0,0,0-3.39,2.53,2.53,0,0,0-3.44,0,2.5,2.5,0,0,0,0,3.4,2.36,2.36,0,0,0,1.71.66Z" transform="translate(-22.68 -22.39)"/><path class="cls-3" d="M183.47,89.65a1.32,1.32,0,0,1-.11.65.51.51,0,0,1-.42.14.47.47,0,0,1-.36-.13.5.5,0,0,1-.12-.37v-.32l.07-2.26a.49.49,0,0,1,.13-.36.52.52,0,0,1,.38-.11h6a.52.52,0,0,1,.38.11.53.53,0,0,1,.13.36l.07,2.26V90a.5.5,0,0,1-.13.37.55.55,0,0,1-.39.12.49.49,0,0,1-.38-.14,1.32,1.32,0,0,1-.12-.65l-.06-1.78h-2V94h1.32a.68.68,0,0,1,.42.11.47.47,0,0,1,.13.36.5.5,0,0,1-.12.37A.47.47,0,0,1,188,95h-3.83a.48.48,0,0,1-.36-.12.5.5,0,0,1-.12-.37.41.41,0,0,1,.13-.36.75.75,0,0,1,.46-.11h1.28V87.87h-2Z" transform="translate(-22.68 -22.39)"/><path class="cls-3" d="M193.76,94H196a.64.64,0,0,1,.4.11.48.48,0,0,1,.12.36.51.51,0,0,1-.12.39.68.68,0,0,1-.44.1h-4.47a.58.58,0,0,1-.4-.12.47.47,0,0,1-.14-.37.43.43,0,0,1,.14-.35.66.66,0,0,1,.43-.12h1.19V89.64h-.46a1.8,1.8,0,0,1-.83-.11.4.4,0,0,1-.16-.38.42.42,0,0,1,.13-.35.6.6,0,0,1,.41-.12h1.56a.45.45,0,0,1,.28.07.27.27,0,0,1,.09.21v1.16a4.63,4.63,0,0,1,1.36-1.21,3.07,3.07,0,0,1,1.51-.4,1.76,1.76,0,0,1,1,.25.72.72,0,0,1,.37.63.6.6,0,0,1-.18.44.56.56,0,0,1-.42.2,1.28,1.28,0,0,1-.53-.21,1.42,1.42,0,0,0-.66-.21,2.15,2.15,0,0,0-1.13.38,6.85,6.85,0,0,0-1.31,1.21Z" transform="translate(-22.68 -22.39)"/><path class="cls-3" d="M203.47,94h2.19a.64.64,0,0,1,.4.11.48.48,0,0,1,.12.36.51.51,0,0,1-.12.39.68.68,0,0,1-.44.1h-5.29a.6.6,0,0,1-.41-.12.47.47,0,0,1-.14-.37.43.43,0,0,1,.14-.35.67.67,0,0,1,.43-.12h2.09V89.64H201.1a.61.61,0,0,1-.43-.13.44.44,0,0,1-.15-.36.43.43,0,0,1,.14-.35.6.6,0,0,1,.41-.12h2a.5.5,0,0,1,.29.07.26.26,0,0,1,.11.21Zm-1.26-7.32a2,2,0,0,1,.13-.93c.09-.13.28-.19.57-.19a.72.72,0,0,1,.56.16,2.12,2.12,0,0,1,0,1.49.78.78,0,0,1-.57.14.94.94,0,0,1-.57-.13.76.76,0,0,1-.12-.51Z" transform="translate(-22.68 -22.39)"/><path class="cls-3" d="M209.47,96.74h1.64a.52.52,0,0,1,.39.13.46.46,0,0,1,.13.37.5.5,0,0,1-.12.37.77.77,0,0,1-.45.11h-3a.6.6,0,0,1-.41-.12.53.53,0,0,1,0-.75,1.32,1.32,0,0,1,.65-.11h.13V89.65h-.13a1.32,1.32,0,0,1-.65-.11.43.43,0,0,1-.17-.38.45.45,0,0,1,.14-.36.6.6,0,0,1,.41-.12h1a.52.52,0,0,1,.3.06.27.27,0,0,1,.09.22v.66a3.12,3.12,0,0,1,1-.72,3.26,3.26,0,0,1,3.51.69,3.17,3.17,0,0,1,.92,2.33A3,3,0,0,1,211.77,95a3.54,3.54,0,0,1-1.33-.26,3,3,0,0,1-1-.73ZM211.59,94a2.16,2.16,0,0,0,1.56-.6,2,2,0,0,0,.61-1.54,2.06,2.06,0,0,0-.61-1.54,2.16,2.16,0,0,0-1.56-.6A2.18,2.18,0,0,0,210,93.4,2.09,2.09,0,0,0,211.59,94Z" transform="translate(-22.68 -22.39)"/><path class="cls-3" d="M221.69,89.09h0a.42.42,0,0,1,.13-.33.67.67,0,0,1,.41-.11.41.41,0,0,1,.38.17,1.4,1.4,0,0,1,.11.67v1.27a.48.48,0,0,1-.13.38.56.56,0,0,1-.39.13.52.52,0,0,1-.32-.11,1.71,1.71,0,0,1-.32-.44,2.27,2.27,0,0,0-.8-.83,2,2,0,0,0-1.08-.29,2.4,2.4,0,0,0-1.73.63,2.16,2.16,0,0,0-.66,1.63,2.27,2.27,0,0,0,.64,1.66,2.19,2.19,0,0,0,1.64.65,2.82,2.82,0,0,0,.87-.13,2.57,2.57,0,0,0,.78-.38c.12-.08.24-.16.35-.25a1.35,1.35,0,0,1,.7-.36.43.43,0,0,1,.34.13.5.5,0,0,1,.14.35c0,.36-.34.72-1,1.1a4.51,4.51,0,0,1-2.18.56,3.41,3.41,0,0,1-2.47-1,3.16,3.16,0,0,1-1-2.37,3.12,3.12,0,0,1,1-2.37,3.39,3.39,0,0,1,2.46-1,3.77,3.77,0,0,1,1,.14A6.7,6.7,0,0,1,221.69,89.09Z" transform="translate(-22.68 -22.39)"/><path class="cls-3" d="M229.61,94.12a4.23,4.23,0,0,1-1.22.78,3.5,3.5,0,0,1-1.36.26,2.34,2.34,0,0,1-1.64-.56,2.08,2.08,0,0,1,.2-3.15,4,4,0,0,1,2.34-.6,7.16,7.16,0,0,1,.8.05,3.68,3.68,0,0,1,.83.16h0a1.34,1.34,0,0,0-1.05-1.58,1.46,1.46,0,0,0-.51,0,3.05,3.05,0,0,0-1.19.28,3,3,0,0,1-.87.29.39.39,0,0,1-.32-.16.61.61,0,0,1-.13-.41q0-.41.75-.69a5.75,5.75,0,0,1,1.93-.28,2.48,2.48,0,0,1,1.82.61,2.45,2.45,0,0,1,.62,1.81V94H231a1.33,1.33,0,0,1,.65.1.39.39,0,0,1,.16.37.5.5,0,0,1-.13.37.6.6,0,0,1-.41.12h-1.08a.51.51,0,0,1-.31-.11.54.54,0,0,1-.16-.34ZM229.56,92a4.58,4.58,0,0,0-.73-.18,4.14,4.14,0,0,0-.7-.06,3.18,3.18,0,0,0-1.66.36,1,1,0,0,0-.61,1,.91.91,0,0,0,.38.77,1.5,1.5,0,0,0,1,.3,3,3,0,0,0,1.61-.45c.5-.31.75-.62.75-1Z" transform="translate(-22.68 -22.39)"/><path class="cls-3" d="M238.5,95c-.1,0-.17,0-.2-.07a.45.45,0,0,1-.06-.28v-.56a2.88,2.88,0,0,1-1,.8,3.06,3.06,0,0,1-1.33.28,2.84,2.84,0,0,1-2.16-.92,3.12,3.12,0,0,1-.88-2.28,3.21,3.21,0,0,1,.93-2.36,3.15,3.15,0,0,1,2.32-.94,3.23,3.23,0,0,1,1.27.25,2.62,2.62,0,0,1,1,.74V87H238a1.83,1.83,0,0,1-.77-.11.41.41,0,0,1-.18-.38.47.47,0,0,1,.14-.37.61.61,0,0,1,.41-.13H239a.53.53,0,0,1,.3.07.27.27,0,0,1,.09.22V94h.31a.89.89,0,0,1,.48.11.41.41,0,0,1,.16.36.49.49,0,0,1-.13.36.45.45,0,0,1-.35.13ZM234,91.92a2.09,2.09,0,0,0,.61,1.55,2.11,2.11,0,0,0,1.54.6,2,2,0,0,0,1.55-.63,2.35,2.35,0,0,0,0-3.15,2.26,2.26,0,0,0-3.12,0A2.24,2.24,0,0,0,234,91.92Z" transform="translate(-22.68 -22.39)"/><path class="cls-3" d="M242.53,92.14a2.08,2.08,0,0,0,.67,1.52,2.42,2.42,0,0,0,1.67.54,4.21,4.21,0,0,0,1.74-.43,4.59,4.59,0,0,1,1.14-.42.43.43,0,0,1,.34.13.4.4,0,0,1,.14.32.54.54,0,0,1-.14.36,1.65,1.65,0,0,1-.46.32,7,7,0,0,1-1.41.51,5.87,5.87,0,0,1-1.45.17,3.42,3.42,0,0,1-2.49-.9,3.12,3.12,0,0,1-.94-2.38,3.2,3.2,0,0,1,1-2.44,3.59,3.59,0,0,1,2.59-.94,3.38,3.38,0,0,1,2.39.87,2.79,2.79,0,0,1,1,2.12.62.62,0,0,1-.16.52,1.83,1.83,0,0,1-.87.13h-4.71Zm0-.9H247a2,2,0,0,0-.67-1.31,2.1,2.1,0,0,0-1.42-.49,2.44,2.44,0,0,0-1.54.47,2.32,2.32,0,0,0-.81,1.33Z" transform="translate(-22.68 -22.39)"/><path class="cls-3" d="M255.78,91.19a3.25,3.25,0,0,0-.18-1.31.61.61,0,0,0-.59-.34.9.9,0,0,0-.8.44,2.14,2.14,0,0,0-.3,1.21V94H254a1,1,0,0,1,.56.1.43.43,0,0,1,.14.37.5.5,0,0,1-.12.37.48.48,0,0,1-.36.12h-.86a.49.49,0,0,1-.4-.13,1.09,1.09,0,0,1-.11-.59V90.65a1.37,1.37,0,0,0-.23-.81.76.76,0,0,0-.64-.3,1,1,0,0,0-.56.19,1.41,1.41,0,0,0-.44.53V94h.25a1,1,0,0,1,.55.1.46.46,0,0,1,.14.37.51.51,0,0,1-.12.39.68.68,0,0,1-.44.1h-1.81a.58.58,0,0,1-.4-.12.5.5,0,0,1-.12-.37.38.38,0,0,1,.16-.37,1.2,1.2,0,0,1,.62-.1H250V89.64h-.12a1.32,1.32,0,0,1-.65-.11.51.51,0,0,1,0-.72h0a.6.6,0,0,1,.41-.12h1a.45.45,0,0,1,.3.07.63.63,0,0,1,.09.33,2,2,0,0,1,.6-.44,1.83,1.83,0,0,1,.73-.14,1.38,1.38,0,0,1,.79.21,1.19,1.19,0,0,1,.46.62,2,2,0,0,1,.66-.63,1.84,1.84,0,0,1,.86-.2,1.46,1.46,0,0,1,1.29.57,3.25,3.25,0,0,1,.41,1.86V94h.11a1,1,0,0,1,.56.1.4.4,0,0,1,.14.37.5.5,0,0,1-.12.37.48.48,0,0,1-.36.12h-.83a.5.5,0,0,1-.4-.16.8.8,0,0,1-.13-.52Z" transform="translate(-22.68 -22.39)"/><path class="cls-3" d="M261.13,96.74h.3a1.4,1.4,0,0,1,.67.11.41.41,0,0,1,.18.39.45.45,0,0,1-.14.36.6.6,0,0,1-.41.12h-3.15a.77.77,0,0,1-.45-.11.5.5,0,0,1-.12-.37.46.46,0,0,1,.13-.37.53.53,0,0,1,.4-.13H260l1.11-2.18-2.51-4.92a1.2,1.2,0,0,1-.62-.11.54.54,0,0,1,0-.73.6.6,0,0,1,.41-.12h1.91a.83.83,0,0,1,.51.1.43.43,0,0,1,.13.37.4.4,0,0,1-.17.38,1.24,1.24,0,0,1-.63.11h-.25l1.85,3.77,1.89-3.77h-.27a1.32,1.32,0,0,1-.65-.11.55.55,0,0,1,0-.75.86.86,0,0,1,.52-.1h1.68a.63.63,0,0,1,.42.12.42.42,0,0,1,.13.35.43.43,0,0,1-.15.37,1,1,0,0,1-.53.12Z" transform="translate(-22.68 -22.39)"/><path class="cls-3" d="M268.77,94.06a1,1,0,0,1,.36-.78,1.56,1.56,0,0,1,1.84,0,1,1,0,0,1,.35.78,1,1,0,0,1-.35.79,1.34,1.34,0,0,1-.92.3,1.29,1.29,0,0,1-.92-.31A1,1,0,0,1,268.77,94.06Zm2.07-6.71-.23,4.44a.53.53,0,0,1-.17.37.57.57,0,0,1-1-.37l-.23-4.44v-.07a.87.87,0,0,1,.21-.62.76.76,0,0,1,.59-.23.71.71,0,0,1,.58.23.87.87,0,0,1,.21.62Z" transform="translate(-22.68 -22.39)"/><path class="cls-2" d="M285.56,89a.34.34,0,0,1-.25-.09.67.67,0,0,1-.1-.34L285,86h0a.33.33,0,0,1,.08-.25.32.32,0,0,1,.23-.08H286a.32.32,0,0,1,.23.08.37.37,0,0,1,.07.25h0l-.2,2.53a.67.67,0,0,1-.1.34.34.34,0,0,1-.25.09ZM288,89a.3.3,0,0,1-.24-.09.6.6,0,0,1-.11-.34L287.42,86h0a.33.33,0,0,1,.08-.25.32.32,0,0,1,.23-.08h.66a.32.32,0,0,1,.23.08.33.33,0,0,1,.08.25h0l-.21,2.53a.67.67,0,0,1-.1.34.34.34,0,0,1-.25.09Z" transform="translate(-22.68 -22.39)"/><path class="cls-2" d="M293.85,97.41a2.09,2.09,0,0,1,.24-.6c.15-.31.27-.56.35-.75a11.43,11.43,0,0,0,.66-2,8.82,8.82,0,0,0,0-3.59,9.13,9.13,0,0,0-.51-1.69c-.12-.3-.28-.66-.47-1.06a2.68,2.68,0,0,1-.3-.77.34.34,0,0,1,.07-.22.23.23,0,0,1,.18-.08.74.74,0,0,1,.48.22,3.7,3.7,0,0,1,.6.71,7.88,7.88,0,0,1,.24,8.82,6,6,0,0,1-.74,1,.88.88,0,0,1-.58.31.25.25,0,0,1-.18-.08A.44.44,0,0,1,293.85,97.41Z" transform="translate(-22.68 -22.39)"/><path class="cls-1" d="M24.64,117.74h1.64a.52.52,0,0,1,.39.13.46.46,0,0,1,.13.37.5.5,0,0,1-.12.37.77.77,0,0,1-.45.11h-3a.6.6,0,0,1-.41-.12.53.53,0,0,1,0-.75,1.32,1.32,0,0,1,.65-.11h.13v-7.09H23.5a1.32,1.32,0,0,1-.65-.11.43.43,0,0,1-.17-.38.45.45,0,0,1,.14-.36.6.6,0,0,1,.41-.12h1a.52.52,0,0,1,.3.06.27.27,0,0,1,.09.22v.66a3.12,3.12,0,0,1,1-.72,3.26,3.26,0,0,1,3.51.69,3.17,3.17,0,0,1,.92,2.33A3,3,0,0,1,27,116a3.54,3.54,0,0,1-1.33-.26,3,3,0,0,1-1-.73ZM26.76,115a2.16,2.16,0,0,0,1.56-.6,2,2,0,0,0,.61-1.54,2.06,2.06,0,0,0-.61-1.54,2.16,2.16,0,0,0-1.56-.6,2.18,2.18,0,0,0-1.55,3.68A2.12,2.12,0,0,0,26.76,115Z" transform="translate(-22.68 -22.39)"/><path class="cls-1" d="M34.14,115h2.27a.6.6,0,0,1,.39.11.49.49,0,0,1,.13.36.51.51,0,0,1-.12.39.68.68,0,0,1-.44.1H31.89a.58.58,0,0,1-.4-.12.47.47,0,0,1-.14-.37.4.4,0,0,1,.15-.35.66.66,0,0,1,.43-.12h1.19v-4.39h-.47a1.76,1.76,0,0,1-.82-.11.4.4,0,0,1-.17-.38.43.43,0,0,1,.14-.35.58.58,0,0,1,.4-.12h1.56a.45.45,0,0,1,.28.07.23.23,0,0,1,.1.21v1.16a4.72,4.72,0,0,1,1.35-1.21,3,3,0,0,1,1.52-.4,1.76,1.76,0,0,1,1,.25.73.73,0,0,1,.38.63.6.6,0,0,1-.19.44.54.54,0,0,1-.41.2,1.28,1.28,0,0,1-.53-.21,1.32,1.32,0,0,0-.67-.21,2.15,2.15,0,0,0-1.12.38,6.54,6.54,0,0,0-1.31,1.21Z" transform="translate(-22.68 -22.39)"/><path class="cls-1" d="M43.84,115H46a.6.6,0,0,1,.39.11.47.47,0,0,1,.13.36.51.51,0,0,1-.12.39.68.68,0,0,1-.44.1H40.7a.6.6,0,0,1-.41-.12.47.47,0,0,1-.14-.37.4.4,0,0,1,.15-.35.66.66,0,0,1,.43-.12h2.08v-4.39H41.47a.59.59,0,0,1-.42-.13.44.44,0,0,1-.15-.36.42.42,0,0,1,.13-.35.6.6,0,0,1,.41-.12h2a.5.5,0,0,1,.29.07.23.23,0,0,1,.1.21Zm-1.26-7.32a2,2,0,0,1,.13-.93c.09-.13.28-.19.57-.19s.47,0,.56.16a2.12,2.12,0,0,1,0,1.49.78.78,0,0,1-.57.14.94.94,0,0,1-.57-.13.76.76,0,0,1-.12-.51Z" transform="translate(-22.68 -22.39)"/><path class="cls-1" d="M49.07,115v-4.38h-.13a1.28,1.28,0,0,1-.64-.11.44.44,0,0,1-.18-.38.43.43,0,0,1,.15-.37.69.69,0,0,1,.46-.11h1a.5.5,0,0,1,.29.07.28.28,0,0,1,.1.21v.46a3.61,3.61,0,0,1,1-.68,2.29,2.29,0,0,1,1-.23,2.12,2.12,0,0,1,1.63.65,2.49,2.49,0,0,1,.59,1.77V115h.32a1,1,0,0,1,.5.11.44.44,0,0,1,.15.36.45.45,0,0,1-.16.38,1.06,1.06,0,0,1-.58.11H53a1,1,0,0,1-.56-.1.52.52,0,0,1-.13-.39.41.41,0,0,1,.15-.37A1,1,0,0,1,53,115h.24v-2.84a1.83,1.83,0,0,0-.36-1.22,1.26,1.26,0,0,0-1.05-.43,1.84,1.84,0,0,0-1.24.48,1.5,1.5,0,0,0-.53,1.17V115h.24a1,1,0,0,1,.55.1.41.41,0,0,1,.15.37.52.52,0,0,1-.13.39,1,1,0,0,1-.6.1H48.7a.63.63,0,0,1-.42-.12.46.46,0,0,1-.14-.37.38.38,0,0,1,.16-.37,1.2,1.2,0,0,1,.62-.1Z" transform="translate(-22.68 -22.39)"/><path class="cls-1" d="M61.88,110.06a.85.85,0,0,1,.49.12.41.41,0,0,1,.15.36.45.45,0,0,1-.14.36.64.64,0,0,1-.38.1H59.18v2.29a2.43,2.43,0,0,0,.29,1.47,1.21,1.21,0,0,0,1,.36,4,4,0,0,0,1.49-.36,4.06,4.06,0,0,1,1.08-.37.47.47,0,0,1,.45.47h0a.55.55,0,0,1-.16.39,1.78,1.78,0,0,1-.57.32,8.53,8.53,0,0,1-1.21.39,4.22,4.22,0,0,1-1,.13,3.24,3.24,0,0,1-1.34-.26,1.71,1.71,0,0,1-.81-.76,1.69,1.69,0,0,1-.2-.57,5.6,5.6,0,0,1-.06-1V111H57a.55.55,0,0,1-.41-.11.46.46,0,0,1-.13-.37.4.4,0,0,1,.17-.38,1.77,1.77,0,0,1,.76-.1h.77V108.3a.69.69,0,0,1,.13-.44.52.52,0,0,1,.39-.14.48.48,0,0,1,.42.17,1.73,1.73,0,0,1,.12.78v1.39Z" transform="translate(-22.68 -22.39)"/><path class="cls-2" d="M69.8,108a1.93,1.93,0,0,1-.23.62c-.15.32-.27.57-.34.76a11.43,11.43,0,0,0-.66,2,8.73,8.73,0,0,0,0,3.6,8.88,8.88,0,0,0,.49,1.67c.12.31.27.66.47,1.07a2.87,2.87,0,0,1,.3.75.5.5,0,0,1-.06.24.23.23,0,0,1-.18.08.69.69,0,0,1-.47-.22,3.7,3.7,0,0,1-.6-.71,7.9,7.9,0,0,1-.26-8.81,5.18,5.18,0,0,1,.74-1,.92.92,0,0,1,.59-.32.23.23,0,0,1,.18.08A.32.32,0,0,1,69.8,108Z" transform="translate(-22.68 -22.39)"/><path class="cls-2" d="M75.53,110a.34.34,0,0,1-.25-.09.59.59,0,0,1-.1-.34L75,107h0a.37.37,0,0,1,.07-.25.31.31,0,0,1,.24-.08H76a.29.29,0,0,1,.23.08.33.33,0,0,1,.08.25h0L76,109.57a.59.59,0,0,1-.1.34.3.3,0,0,1-.24.09ZM78,110a.34.34,0,0,1-.25-.09.67.67,0,0,1-.1-.34L77.39,107h0a.33.33,0,0,1,.08-.25.32.32,0,0,1,.23-.08h.66a.32.32,0,0,1,.23.08.33.33,0,0,1,.08.25h0l-.22,2.53a.59.59,0,0,1-.1.34.3.3,0,0,1-.24.09Z" transform="translate(-22.68 -22.39)"/><path class="cls-3" d="M96.19,113.24a1.36,1.36,0,0,1,.11-.66c.06-.11.19-.16.39-.16a.49.49,0,0,1,.36.13.56.56,0,0,1,.13.39v2.55a.54.54,0,0,1-.13.37.49.49,0,0,1-.36.13H90.3a.44.44,0,0,1-.49-.36.29.29,0,0,1,0-.13.41.41,0,0,1,.15-.37,1.37,1.37,0,0,1,.66-.1h.86v-6.16h-.86a1.36,1.36,0,0,1-.66-.11.43.43,0,0,1-.15-.38.48.48,0,0,1,.13-.38.6.6,0,0,1,.39-.11H94a.5.5,0,0,1,.37.12.46.46,0,0,1,.13.37.43.43,0,0,1-.15.38,1.4,1.4,0,0,1-.67.11H92.56V115h3.63Z" transform="translate(-22.68 -22.39)"/><path class="cls-3" d="M105.61,112.84a3.13,3.13,0,0,1-1,2.39,4.07,4.07,0,0,1-5.18,0,3.38,3.38,0,0,1,0-4.78,4.1,4.1,0,0,1,5.18,0A3.13,3.13,0,0,1,105.61,112.84ZM102,115.2a2.31,2.31,0,0,0,1.72-.67,2.45,2.45,0,0,0,0-3.39,2.53,2.53,0,0,0-3.44,0,2.5,2.5,0,0,0,0,3.4A2.34,2.34,0,0,0,102,115.2Z" transform="translate(-22.68 -22.39)"/><path class="cls-3" d="M114,112.84a3.09,3.09,0,0,1-1,2.39,3.64,3.64,0,0,1-2.59.93,3.6,3.6,0,0,1-2.58-.93,3.36,3.36,0,0,1,0-4.75l0,0a4.07,4.07,0,0,1,5.17,0A3.11,3.11,0,0,1,114,112.84Zm-3.59,2.36a2.37,2.37,0,0,0,1.73-.67,2.47,2.47,0,0,0,0-3.39,2.53,2.53,0,0,0-3.44,0,2.5,2.5,0,0,0,0,3.4,2.34,2.34,0,0,0,1.72.66Z" transform="translate(-22.68 -22.39)"/><path class="cls-3" d="M117.58,113.37v2a.68.68,0,0,1-.12.44.34.34,0,0,1-.29.16h-1.26a.58.58,0,0,1-.4-.12.47.47,0,0,1-.14-.37.38.38,0,0,1,.16-.37,1.49,1.49,0,0,1,.69-.1h.32v-7h-.28a1.74,1.74,0,0,1-.75-.11.41.41,0,0,1-.18-.38.47.47,0,0,1,.14-.37.61.61,0,0,1,.41-.13h1.31a.4.4,0,0,1,.28.08.26.26,0,0,1,.11.21v4.9l2-1.66a.89.89,0,0,1-.33-.21.39.39,0,0,1-.11-.27.37.37,0,0,1,.15-.31.84.84,0,0,1,.44-.1h1.85a.64.64,0,0,1,.4.11.43.43,0,0,1,.14.35q0,.41-.66.48h-.21a1.69,1.69,0,0,0-.62.21,4.54,4.54,0,0,0-.67.48l-1,.87,2.59,2.82h.59a.68.68,0,0,1,.42.11.59.59,0,0,1,0,.73.58.58,0,0,1-.4.12H120.3a.72.72,0,0,1-.43-.1.38.38,0,0,1-.14-.33.42.42,0,0,1,.13-.32,1,1,0,0,1,.4-.21l-2-2.22Z" transform="translate(-22.68 -22.39)"/><path class="cls-3" d="M124.24,115.5v-1.22a.73.73,0,0,1,.11-.43.5.5,0,0,1,.37-.13c.19,0,.33.13.44.39a2.33,2.33,0,0,0,.2.34,2,2,0,0,0,.85.6,3.53,3.53,0,0,0,1.24.22,2,2,0,0,0,1.16-.3.89.89,0,0,0,.44-.77.74.74,0,0,0-.35-.69,2.64,2.64,0,0,0-1.21-.2h-.38a3.91,3.91,0,0,1-2.12-.49,1.56,1.56,0,0,1-.73-1.41A1.61,1.61,0,0,1,125,110a3.51,3.51,0,0,1,2-.5,3.89,3.89,0,0,1,1.07.15l.57.15a.78.78,0,0,0,.29-.14.77.77,0,0,1,.42-.13.37.37,0,0,1,.34.17.9.9,0,0,1,.12.51v.8a1.08,1.08,0,0,1-.11.53.39.39,0,0,1-.35.16c-.14,0-.31-.12-.51-.35a4,4,0,0,0-.35-.36,2.3,2.3,0,0,0-.77-.49,3.06,3.06,0,0,0-1-.14,1.78,1.78,0,0,0-1,.28.87.87,0,0,0-.39.72.64.64,0,0,0,.4.62,5.69,5.69,0,0,0,1.74.21,4,4,0,0,1,2.08.49,1.66,1.66,0,0,1,.65,1.43,1.76,1.76,0,0,1-.72,1.48,3.17,3.17,0,0,1-2,.55,5.1,5.1,0,0,1-.87-.07,6.62,6.62,0,0,1-1.2-.24,3.3,3.3,0,0,1-.41.23.74.74,0,0,1-.29.08.42.42,0,0,1-.36-.17A.72.72,0,0,1,124.24,115.5Z" transform="translate(-22.68 -22.39)"/><path class="cls-3" d="M143.57,108H142.4a2.14,2.14,0,0,1-.83-.11.4.4,0,0,1-.16-.38.46.46,0,0,1,.14-.37.58.58,0,0,1,.4-.13h2.26a.51.51,0,0,1,.29.08.28.28,0,0,1,.1.21V115h2.15a.57.57,0,0,1,.38.11.52.52,0,0,1,.11.36.5.5,0,0,1-.11.39.68.68,0,0,1-.44.1h-5a.6.6,0,0,1-.41-.12.47.47,0,0,1-.14-.37.43.43,0,0,1,.14-.35.67.67,0,0,1,.43-.12h1.9Z" transform="translate(-22.68 -22.39)"/><path class="cls-3" d="M153.06,115h2.2a.6.6,0,0,1,.39.11.49.49,0,0,1,.13.36.51.51,0,0,1-.12.39.68.68,0,0,1-.44.1h-5.3a.6.6,0,0,1-.41-.12.47.47,0,0,1-.14-.37.43.43,0,0,1,.14-.35.67.67,0,0,1,.43-.12H152v-4.39h-1.34a.61.61,0,0,1-.43-.13.45.45,0,0,1-.14-.36.42.42,0,0,1,.13-.35.6.6,0,0,1,.41-.12h2a.5.5,0,0,1,.29.07.23.23,0,0,1,.1.21Zm-1.26-7.32a2,2,0,0,1,.13-.93c.09-.13.28-.19.57-.19a.72.72,0,0,1,.56.16,1.33,1.33,0,0,1,.14.76,1.23,1.23,0,0,1-.13.73.78.78,0,0,1-.57.14.94.94,0,0,1-.57-.13.77.77,0,0,1-.13-.51Z" transform="translate(-22.68 -22.39)"/><path class="cls-3" d="M159.58,113.37v2a.76.76,0,0,1-.11.44.34.34,0,0,1-.29.16h-1.26a.6.6,0,0,1-.41-.12.5.5,0,0,1-.13-.37.38.38,0,0,1,.16-.37,1.43,1.43,0,0,1,.68-.1h.33v-7h-.28a1.78,1.78,0,0,1-.76-.11.43.43,0,0,1-.17-.38.47.47,0,0,1,.14-.37.61.61,0,0,1,.41-.13h1.3a.44.44,0,0,1,.29.08.23.23,0,0,1,.1.21v4.9l2-1.66a.89.89,0,0,1-.33-.21.39.39,0,0,1-.11-.27.35.35,0,0,1,.15-.31.75.75,0,0,1,.44-.1h1.85a.64.64,0,0,1,.4.11.45.45,0,0,1,.13.35q0,.41-.66.48h-.2a1.69,1.69,0,0,0-.62.21,4.63,4.63,0,0,0-.68.48l-1,.87,2.59,2.82h.59a.68.68,0,0,1,.42.11.41.41,0,0,1,.13.36.47.47,0,0,1-.14.37.6.6,0,0,1-.41.12h-1.85a.75.75,0,0,1-.44-.1.41.41,0,0,1-.13-.33.42.42,0,0,1,.13-.32,1,1,0,0,1,.4-.21l-2-2.22Z" transform="translate(-22.68 -22.39)"/><path class="cls-3" d="M166.92,113.14a2.08,2.08,0,0,0,.67,1.52,2.42,2.42,0,0,0,1.67.54,4.21,4.21,0,0,0,1.74-.43,4.59,4.59,0,0,1,1.14-.42.46.46,0,0,1,.48.45.54.54,0,0,1-.14.36,1.65,1.65,0,0,1-.46.32,7,7,0,0,1-1.41.51,5.87,5.87,0,0,1-1.45.17,3.42,3.42,0,0,1-2.49-.9,3.12,3.12,0,0,1-.94-2.38,3.2,3.2,0,0,1,1-2.44,3.6,3.6,0,0,1,2.58-.94,3.43,3.43,0,0,1,2.4.87,2.8,2.8,0,0,1,1,2.12.69.69,0,0,1-.16.52,1.77,1.77,0,0,1-.88.13h-4.75Zm0-.9h4.45a2,2,0,0,0-.68-1.31,2.1,2.1,0,0,0-1.42-.49,2.46,2.46,0,0,0-1.53.47,2.34,2.34,0,0,0-.74,1.33Z" transform="translate(-22.68 -22.39)"/><path class="cls-3" d="M185.52,117.74h.29a1.44,1.44,0,0,1,.68.11.41.41,0,0,1,.18.39.45.45,0,0,1-.14.36.6.6,0,0,1-.41.12H183a.77.77,0,0,1-.45-.11.5.5,0,0,1-.13-.37.47.47,0,0,1,.14-.37.53.53,0,0,1,.4-.13h1.48l1.11-2.18L183,110.64a1.2,1.2,0,0,1-.62-.11.51.51,0,0,1,0-.72h0a.6.6,0,0,1,.41-.12h1.91a.9.9,0,0,1,.51.1.55.55,0,0,1,0,.75,1.24,1.24,0,0,1-.63.11h-.25l1.85,3.77,1.89-3.77h-.27a1.32,1.32,0,0,1-.65-.11.41.41,0,0,1-.18-.38.5.5,0,0,1,.13-.37.94.94,0,0,1,.52-.1h1.69a.63.63,0,0,1,.42.12.45.45,0,0,1,.13.35.43.43,0,0,1-.15.37,1,1,0,0,1-.54.12Z" transform="translate(-22.68 -22.39)"/><path class="cls-3" d="M198,112.84a3.09,3.09,0,0,1-1,2.39,4.06,4.06,0,0,1-5.17,0,3.36,3.36,0,0,1,0-4.75l0,0a4.06,4.06,0,0,1,5.17,0A3.09,3.09,0,0,1,198,112.84Zm-3.59,2.36a2.37,2.37,0,0,0,1.73-.67,2.48,2.48,0,0,0,0-3.39,2.42,2.42,0,1,0-3.45,3.4,2.33,2.33,0,0,0,1.74.66Z" transform="translate(-22.68 -22.39)"/><path class="cls-3" d="M201.13,113.47a1.83,1.83,0,0,0,.36,1.26,1.52,1.52,0,0,0,1.15.39,1.88,1.88,0,0,0,1.28-.47,1.52,1.52,0,0,0,.53-1.18v-2.83h-.94a.57.57,0,0,1-.38-.11.44.44,0,0,1-.12-.35.53.53,0,0,1,.12-.38.63.63,0,0,1,.42-.12H205a.44.44,0,0,1,.36.11,1,1,0,0,1,.11.55V115h.31a.93.93,0,0,1,.49.11.43.43,0,0,1,.14.36.47.47,0,0,1-.14.37.58.58,0,0,1-.4.12h-1a.5.5,0,0,1-.29-.07.23.23,0,0,1-.1-.21v-.46a5.27,5.27,0,0,1-1.13.69,2.47,2.47,0,0,1-1,.19,2.22,2.22,0,0,1-1.7-.6,2.58,2.58,0,0,1-.56-1.81v-3.08H200a1.28,1.28,0,0,1-.64-.11.52.52,0,0,1,0-.73.63.63,0,0,1,.42-.12h1a.47.47,0,0,1,.33.09.65.65,0,0,1,.09.43Z" transform="translate(-22.68 -22.39)"/><path class="cls-3" d="M211.15,110a.3.3,0,0,1-.24-.09.6.6,0,0,1-.11-.34l-.21-2.53v0a.34.34,0,0,1,.09-.25.32.32,0,0,1,.23-.08h.65a.28.28,0,0,1,.32.23.17.17,0,0,1,0,.1h0l-.21,2.53a.59.59,0,0,1-.1.34.29.29,0,0,1-.25.09Z" transform="translate(-22.68 -22.39)"/><path class="cls-3" d="M219,115h2.27a.6.6,0,0,1,.39.11.49.49,0,0,1,.13.36.51.51,0,0,1-.12.39.68.68,0,0,1-.44.1h-4.48a.58.58,0,0,1-.4-.12.47.47,0,0,1-.14-.37.4.4,0,0,1,.15-.35.66.66,0,0,1,.43-.12H218v-4.39h-.47a1.76,1.76,0,0,1-.82-.11.4.4,0,0,1-.17-.38.43.43,0,0,1,.14-.35.58.58,0,0,1,.4-.12h1.56a.45.45,0,0,1,.28.07.23.23,0,0,1,.1.21v1.16a4.72,4.72,0,0,1,1.35-1.21,3,3,0,0,1,1.52-.4,1.76,1.76,0,0,1,1,.25.73.73,0,0,1,.38.63.6.6,0,0,1-.19.44.54.54,0,0,1-.41.2,1.28,1.28,0,0,1-.53-.21,1.32,1.32,0,0,0-.67-.21,2.15,2.15,0,0,0-1.12.38A6.64,6.64,0,0,0,219,112.2Z" transform="translate(-22.68 -22.39)"/><path class="cls-3" d="M225.73,113.14a2.07,2.07,0,0,0,.66,1.52,2.48,2.48,0,0,0,1.68.54,4.21,4.21,0,0,0,1.74-.43,4.59,4.59,0,0,1,1.14-.42.46.46,0,0,1,.48.45.54.54,0,0,1-.14.36,1.65,1.65,0,0,1-.46.32,7,7,0,0,1-1.41.51,5.87,5.87,0,0,1-1.45.17,3.48,3.48,0,0,1-2.5-.9,3.16,3.16,0,0,1-.93-2.38,3.2,3.2,0,0,1,1-2.44,3.6,3.6,0,0,1,2.58-.94,3.43,3.43,0,0,1,2.4.87,2.8,2.8,0,0,1,1,2.12.69.69,0,0,1-.16.52,1.77,1.77,0,0,1-.88.13h-4.75Zm0-.9h4.45a2,2,0,0,0-.68-1.31,2.1,2.1,0,0,0-1.42-.49,2.46,2.46,0,0,0-1.53.47,2.29,2.29,0,0,0-.79,1.33Z" transform="translate(-22.68 -22.39)"/><path class="cls-3" d="M247.62,115.63a7.71,7.71,0,0,1-.09,1.36,2,2,0,0,1-.33.7,2.45,2.45,0,0,1-1.08.77,4.76,4.76,0,0,1-1.63.26,3.14,3.14,0,0,1-1.14-.15.5.5,0,0,1-.35-.48.48.48,0,0,1,.17-.37.57.57,0,0,1,.41-.16,5.42,5.42,0,0,1,.57,0h.58a1.9,1.9,0,0,0,1.44-.46,2.34,2.34,0,0,0,.42-1.6v-.82a2.68,2.68,0,0,1-.92.71,3.1,3.1,0,0,1-3.28-.63,3.19,3.19,0,0,1,0-4.33,2.91,2.91,0,0,1,2.14-.87,2.87,2.87,0,0,1,1,.2,4.18,4.18,0,0,1,1,.59V110a.27.27,0,0,1,.09-.22.49.49,0,0,1,.29-.06h1a.6.6,0,0,1,.41.12.47.47,0,0,1,.13.36.41.41,0,0,1-.17.38,1.24,1.24,0,0,1-.63.11h-.13Zm-3-4.94a2,2,0,0,0-1.46.55,1.94,1.94,0,0,0-.57,1.44,1.89,1.89,0,0,0,.57,1.42,2.18,2.18,0,0,0,2.92,0,1.89,1.89,0,0,0,.57-1.42,1.91,1.91,0,0,0-.57-1.43,2,2,0,0,0-1.43-.56Z" transform="translate(-22.68 -22.39)"/><path class="cls-3" d="M256.83,112.84a3.09,3.09,0,0,1-1,2.39,4.06,4.06,0,0,1-5.17,0,3.36,3.36,0,0,1,0-4.75l0,0a4.06,4.06,0,0,1,5.17,0A3.09,3.09,0,0,1,256.83,112.84Zm-3.59,2.36a2.37,2.37,0,0,0,1.73-.67,2.48,2.48,0,0,0,0-3.39,2.42,2.42,0,1,0-3.45,3.4,2.38,2.38,0,0,0,1.72.66Z" transform="translate(-22.68 -22.39)"/><path class="cls-3" d="M262.28,115h2.19a.64.64,0,0,1,.4.11.48.48,0,0,1,.12.36.51.51,0,0,1-.12.39.68.68,0,0,1-.44.1h-5.3a.6.6,0,0,1-.41-.12.5.5,0,0,1-.13-.37.43.43,0,0,1,.14-.35.67.67,0,0,1,.43-.12h2.09v-4.39h-1.34a.61.61,0,0,1-.43-.13.44.44,0,0,1-.15-.36.43.43,0,0,1,.14-.35.6.6,0,0,1,.41-.12h2a.5.5,0,0,1,.29.07.26.26,0,0,1,.11.21ZM261,107.71a2,2,0,0,1,.14-.93c.09-.13.28-.19.57-.19a.72.72,0,0,1,.56.16,2.12,2.12,0,0,1,0,1.49.78.78,0,0,1-.57.14.94.94,0,0,1-.57-.13A.8.8,0,0,1,261,107.71Z" transform="translate(-22.68 -22.39)"/><path class="cls-3" d="M267.5,115v-4.38h-.13a1.28,1.28,0,0,1-.64-.11.43.43,0,0,1-.17-.38.47.47,0,0,1,.14-.37.72.72,0,0,1,.47-.11h1a.5.5,0,0,1,.29.07.23.23,0,0,1,.1.21v.46a3.61,3.61,0,0,1,1-.68,2.44,2.44,0,0,1,1-.23,2.1,2.1,0,0,1,1.62.65,2.49,2.49,0,0,1,.59,1.77V115h.33a.93.93,0,0,1,.49.11.44.44,0,0,1,.15.36.4.4,0,0,1-.16.38,1,1,0,0,1-.57.11H271.5a1,1,0,0,1-.57-.1.51.51,0,0,1-.12-.39.46.46,0,0,1,.14-.37,1,1,0,0,1,.55-.1h.24v-2.84a1.83,1.83,0,0,0-.36-1.22,1.3,1.3,0,0,0-1.06-.43,1.79,1.79,0,0,0-1.23.48,1.48,1.48,0,0,0-.54,1.17V115h.24a1,1,0,0,1,.56.1.46.46,0,0,1,.14.37.51.51,0,0,1-.12.39,1,1,0,0,1-.6.1h-1.62a.63.63,0,0,1-.42-.12.47.47,0,0,1-.14-.37.42.42,0,0,1,.16-.37,1.35,1.35,0,0,1,.63-.1Z" transform="translate(-22.68 -22.39)"/><path class="cls-3" d="M281.23,115.63a6.19,6.19,0,0,1-.1,1.36,1.81,1.81,0,0,1-.33.7,2.42,2.42,0,0,1-1.07.77,4.76,4.76,0,0,1-1.63.26,3.14,3.14,0,0,1-1.14-.15.5.5,0,0,1-.36-.48.49.49,0,0,1,.18-.37.57.57,0,0,1,.41-.16h1.15a1.87,1.87,0,0,0,1.43-.46,2.28,2.28,0,0,0,.43-1.6v-.82a2.71,2.71,0,0,1-.93.71,3.08,3.08,0,0,1-3.27-.63,3.19,3.19,0,0,1,0-4.33,2.9,2.9,0,0,1,3.13-.67,4.18,4.18,0,0,1,1,.59V110a.27.27,0,0,1,.09-.22.49.49,0,0,1,.29-.06h1a.6.6,0,0,1,.41.12.45.45,0,0,1,.14.36.43.43,0,0,1-.17.38,1.28,1.28,0,0,1-.64.11h-.12Zm-3-4.94a2,2,0,0,0-1.47.55,1.94,1.94,0,0,0-.57,1.44,1.89,1.89,0,0,0,.57,1.42,2.21,2.21,0,0,0,2.93,0,1.93,1.93,0,0,0,.57-1.42,1.93,1.93,0,0,0-2-2Z" transform="translate(-22.68 -22.39)"/><path class="cls-3" d="M297.12,110.06a.8.8,0,0,1,.48.12.41.41,0,0,1,.16.36.44.44,0,0,1-.15.36.66.66,0,0,1-.43.12h-2.76v2.29a2.43,2.43,0,0,0,.29,1.47,1.21,1.21,0,0,0,1,.36,4,4,0,0,0,1.49-.36,4.52,4.52,0,0,1,1.07-.37.47.47,0,0,1,.46.46v0a.52.52,0,0,1-.17.39,1.78,1.78,0,0,1-.57.32,8.4,8.4,0,0,1-1.2.39,4.22,4.22,0,0,1-1,.13,3.24,3.24,0,0,1-1.34-.26,1.66,1.66,0,0,1-.81-.76,1.69,1.69,0,0,1-.2-.57,5.6,5.6,0,0,1-.06-1V111H292.2a.57.57,0,0,1-.42-.11.5.5,0,0,1-.13-.37.41.41,0,0,1,.18-.38,1.77,1.77,0,0,1,.76-.1h.77V108.3a.58.58,0,0,1,.13-.44.51.51,0,0,1,.39-.14.48.48,0,0,1,.42.17,1.73,1.73,0,0,1,.12.78v1.39Z" transform="translate(-22.68 -22.39)"/><path class="cls-3" d="M307.24,112.84a3.09,3.09,0,0,1-1,2.39,4.06,4.06,0,0,1-5.17,0,3.36,3.36,0,0,1,0-4.75l0,0a4.07,4.07,0,0,1,5.17,0A3.11,3.11,0,0,1,307.24,112.84Zm-3.59,2.36a2.37,2.37,0,0,0,1.73-.67,2.27,2.27,0,0,0,.67-1.69,2.3,2.3,0,0,0-.68-1.7,2.53,2.53,0,0,0-3.44,0,2.5,2.5,0,0,0,0,3.4A2.38,2.38,0,0,0,303.65,115.2Z" transform="translate(-22.68 -22.39)"/><path class="cls-3" d="M322.32,110.06a.85.85,0,0,1,.49.12.41.41,0,0,1,.15.36.45.45,0,0,1-.14.36.67.67,0,0,1-.43.12h-2.77v2.29a2.58,2.58,0,0,0,.29,1.47,1.21,1.21,0,0,0,1,.36,4,4,0,0,0,1.49-.36,4.06,4.06,0,0,1,1.08-.37.43.43,0,0,1,.32.14.48.48,0,0,1,.14.34.52.52,0,0,1-.17.39,1.78,1.78,0,0,1-.57.32,8.44,8.44,0,0,1-1.2.4,4.22,4.22,0,0,1-1,.13,3.24,3.24,0,0,1-1.34-.26,1.81,1.81,0,0,1-.81-.76,1.67,1.67,0,0,1-.19-.57,5.6,5.6,0,0,1-.06-1V111h-1.2a.55.55,0,0,1-.41-.11.46.46,0,0,1-.13-.37.41.41,0,0,1,.18-.38,1.75,1.75,0,0,1,.75-.1h.78V108.3a.68.68,0,0,1,.12-.44.53.53,0,0,1,.4-.14.46.46,0,0,1,.41.17,1.73,1.73,0,0,1,.12.78v1.39Z" transform="translate(-22.68 -22.39)"/><path class="cls-3" d="M326.28,115v-7h-.13a1.24,1.24,0,0,1-.63-.11.41.41,0,0,1-.18-.38.47.47,0,0,1,.14-.37.61.61,0,0,1,.41-.13h1a.4.4,0,0,1,.28.08.26.26,0,0,1,.11.21v3.09a3.61,3.61,0,0,1,1-.68,2.44,2.44,0,0,1,1-.23,2.1,2.1,0,0,1,1.62.65,2.49,2.49,0,0,1,.59,1.77V115h.33a.93.93,0,0,1,.49.11.41.41,0,0,1,.16.36.47.47,0,0,1-.14.37.6.6,0,0,1-.41.12h-1.83a.66.66,0,0,1-.43-.1.5.5,0,0,1-.11-.39c0-.18,0-.31.14-.37a1,1,0,0,1,.53-.1h.24v-2.84a1.83,1.83,0,0,0-.36-1.22,1.3,1.3,0,0,0-1.06-.43,1.75,1.75,0,0,0-1.23.48,1.47,1.47,0,0,0-.53,1.17V115h.24a1,1,0,0,1,.55.1.4.4,0,0,1,.14.37.5.5,0,0,1-.11.39.66.66,0,0,1-.43.1h-1.82a.58.58,0,0,1-.4-.12.47.47,0,0,1-.14-.37.38.38,0,0,1,.17-.37,1.2,1.2,0,0,1,.62-.1Z" transform="translate(-22.68 -22.39)"/><path class="cls-3" d="M335,113.14a2.07,2.07,0,0,0,.66,1.52,2.47,2.47,0,0,0,1.67.54,4.11,4.11,0,0,0,1.75-.43,4.59,4.59,0,0,1,1.14-.42.47.47,0,0,1,.34.13.43.43,0,0,1,.14.32.55.55,0,0,1-.15.36,1.6,1.6,0,0,1-.45.32,7.07,7.07,0,0,1-1.42.51,5.79,5.79,0,0,1-1.44.17,3.48,3.48,0,0,1-2.5-.9,3.16,3.16,0,0,1-.93-2.38,3.2,3.2,0,0,1,1-2.44,3.6,3.6,0,0,1,2.58-.94,3.38,3.38,0,0,1,2.39.87,2.77,2.77,0,0,1,1,2.12.62.62,0,0,1-.16.52,1.72,1.72,0,0,1-.87.13Zm0-.9h4.45a2,2,0,0,0-.68-1.31,2.1,2.1,0,0,0-1.42-.49,2.46,2.46,0,0,0-1.53.47A2.28,2.28,0,0,0,335,112.24Z" transform="translate(-22.68 -22.39)"/><path class="cls-2" d="M352.77,110a.34.34,0,0,1-.25-.09.58.58,0,0,1-.09-.34l-.22-2.53v0a.33.33,0,0,1,.08-.25.32.32,0,0,1,.23-.08h.66a.32.32,0,0,1,.23.08.37.37,0,0,1,.07.25h0l-.2,2.53a.67.67,0,0,1-.1.34.29.29,0,0,1-.25.09Zm2.42,0a.3.3,0,0,1-.24-.09.6.6,0,0,1-.11-.34l-.21-2.53v0a.33.33,0,0,1,.08-.25.32.32,0,0,1,.23-.08h.66a.32.32,0,0,1,.23.08.33.33,0,0,1,.08.25h0l-.21,2.53a.67.67,0,0,1-.1.34.29.29,0,0,1-.25.09Z" transform="translate(-22.68 -22.39)"/><path class="cls-2" d="M371.37,111.17h2.48a.58.58,0,0,1,.39.15.51.51,0,0,1,.15.37.44.44,0,0,1-.15.36.62.62,0,0,1-.39.14h-2.48v2.56a.63.63,0,0,1-.14.4.5.5,0,0,1-.73,0,.54.54,0,0,1-.15-.38v-2.56h-2.47a.62.62,0,0,1-.39-.14.48.48,0,0,1-.16-.36.53.53,0,0,1,.17-.36.55.55,0,0,1,.38-.16h2.47v-2.55a.53.53,0,0,1,.14-.4.51.51,0,0,1,.37-.15.46.46,0,0,1,.37.15.53.53,0,0,1,.14.4Z" transform="translate(-22.68 -22.39)"/><path class="cls-3" d="M389.72,116a.25.25,0,0,1-.2-.07.45.45,0,0,1-.06-.28v-.56a2.69,2.69,0,0,1-1,.8,3.1,3.1,0,0,1-1.34.28,2.84,2.84,0,0,1-2.16-.92,3.44,3.44,0,0,1,.06-4.64,3.34,3.34,0,0,1,3.58-.69,2.52,2.52,0,0,1,1,.74V108h-.36a1.85,1.85,0,0,1-.77-.11.43.43,0,0,1-.17-.38.47.47,0,0,1,.14-.37.61.61,0,0,1,.41-.13h1.4a.59.59,0,0,1,.29.07.23.23,0,0,1,.1.22V115h.3a.93.93,0,0,1,.49.11.44.44,0,0,1,.15.36.47.47,0,0,1-.13.36.45.45,0,0,1-.35.13Zm-4.48-3.07a2.06,2.06,0,0,0,2,2.15h.17a2.07,2.07,0,0,0,1.55-.63,2.15,2.15,0,0,0,.61-1.58,2.13,2.13,0,0,0-.61-1.57,2.1,2.1,0,0,0-1.55-.62,2.07,2.07,0,0,0-1.56.63,2.22,2.22,0,0,0-.6,1.61Z" transform="translate(-22.68 -22.39)"/><path class="cls-3" d="M393.76,113.14a2.07,2.07,0,0,0,.66,1.52,2.47,2.47,0,0,0,1.67.54,4.11,4.11,0,0,0,1.75-.43,4.59,4.59,0,0,1,1.14-.42.47.47,0,0,1,.34.13.43.43,0,0,1,.14.32.55.55,0,0,1-.15.36,1.65,1.65,0,0,1-.46.32,7,7,0,0,1-1.41.51,5.79,5.79,0,0,1-1.44.17,3.48,3.48,0,0,1-2.5-.9,3.16,3.16,0,0,1-.93-2.38,3.2,3.2,0,0,1,1-2.44,3.6,3.6,0,0,1,2.58-.94,3.38,3.38,0,0,1,2.39.87,2.76,2.76,0,0,1,1,2.12.62.62,0,0,1-.16.52,1.72,1.72,0,0,1-.87.13h-4.75Zm0-.9h4.45a2,2,0,0,0-.68-1.31,2.1,2.1,0,0,0-1.42-.49,2.46,2.46,0,0,0-1.53.47,2.29,2.29,0,0,0-.79,1.33Z" transform="translate(-22.68 -22.39)"/><path class="cls-3" d="M401.49,115.5v-1.22a.61.61,0,0,1,.11-.43.5.5,0,0,1,.37-.13c.18,0,.33.13.44.39a1.45,1.45,0,0,0,.2.34,2,2,0,0,0,.85.6,3.43,3.43,0,0,0,1.23.22,2,2,0,0,0,1.16-.3.87.87,0,0,0,.44-.77.73.73,0,0,0-.35-.69,2.64,2.64,0,0,0-1.21-.2h-.37a4,4,0,0,1-2.13-.49,1.56,1.56,0,0,1-.73-1.41,1.6,1.6,0,0,1,.72-1.4,3.44,3.44,0,0,1,2-.5,3.89,3.89,0,0,1,1.07.15l.58.15a1.11,1.11,0,0,0,.29-.14.74.74,0,0,1,.41-.13.4.4,0,0,1,.35.17,1,1,0,0,1,.11.51v.8a1.08,1.08,0,0,1-.11.53.39.39,0,0,1-.35.16c-.13,0-.3-.12-.5-.35a4,4,0,0,0-.35-.36,2.3,2.3,0,0,0-.77-.49,3.06,3.06,0,0,0-1-.14,1.71,1.71,0,0,0-1,.28.86.86,0,0,0-.4.72.65.65,0,0,0,.41.62,5.62,5.62,0,0,0,1.73.21,4,4,0,0,1,2.08.49,1.63,1.63,0,0,1,.66,1.43,1.74,1.74,0,0,1-.73,1.48,3.09,3.09,0,0,1-1.95.55,5.1,5.1,0,0,1-.87-.07q-.48-.08-1.2-.24a3.3,3.3,0,0,1-.41.23,1,1,0,0,1-.29.08.45.45,0,0,1-.37-.17A.8.8,0,0,1,401.49,115.5Z" transform="translate(-22.68 -22.39)"/><path class="cls-3" d="M414.73,110.06a.78.78,0,0,1,.49.12.41.41,0,0,1,.16.36.44.44,0,0,1-.15.36.66.66,0,0,1-.43.12H412v2.29a2.44,2.44,0,0,0,.3,1.47,1.21,1.21,0,0,0,1,.36,4,4,0,0,0,1.49-.36,4.52,4.52,0,0,1,1.07-.37.47.47,0,0,1,.46.46v0a.52.52,0,0,1-.17.39,1.78,1.78,0,0,1-.57.32,8.4,8.4,0,0,1-1.2.39,4.22,4.22,0,0,1-1,.13,3.24,3.24,0,0,1-1.34-.26,1.73,1.73,0,0,1-.82-.76,1.91,1.91,0,0,1-.19-.57,5.6,5.6,0,0,1-.06-1V111h-1.16a.57.57,0,0,1-.42-.11.5.5,0,0,1-.13-.37.41.41,0,0,1,.18-.38,1.77,1.77,0,0,1,.76-.1h.8V108.3a.58.58,0,0,1,.13-.44.51.51,0,0,1,.39-.14.48.48,0,0,1,.42.17,1.6,1.6,0,0,1,.11.78v1.39Z" transform="translate(-22.68 -22.39)"/><path class="cls-3" d="M421.91,115h2.19a.6.6,0,0,1,.39.11.47.47,0,0,1,.13.36.51.51,0,0,1-.12.39.68.68,0,0,1-.44.1h-5.3a.6.6,0,0,1-.41-.12.47.47,0,0,1-.14-.37.4.4,0,0,1,.15-.35.66.66,0,0,1,.43-.12h2.08v-4.39h-1.33a.61.61,0,0,1-.43-.13.44.44,0,0,1-.15-.36.43.43,0,0,1,.14-.35.6.6,0,0,1,.41-.12h2a.5.5,0,0,1,.29.07.26.26,0,0,1,.11.21Zm-1.27-7.32a2.1,2.1,0,0,1,.13-.93c.09-.13.28-.19.57-.19a.74.74,0,0,1,.57.16,1.34,1.34,0,0,1,.13.76,1.32,1.32,0,0,1-.12.73.86.86,0,0,1-.58.14.94.94,0,0,1-.57-.13.83.83,0,0,1-.13-.51Z" transform="translate(-22.68 -22.39)"/><path class="cls-3" d="M427.13,115v-4.38H427a1.28,1.28,0,0,1-.64-.11.44.44,0,0,1-.18-.38.43.43,0,0,1,.15-.37.69.69,0,0,1,.46-.11h1a.5.5,0,0,1,.29.07.23.23,0,0,1,.1.21v.46a3.61,3.61,0,0,1,1-.68,2.29,2.29,0,0,1,1-.23,2.12,2.12,0,0,1,1.63.65,2.49,2.49,0,0,1,.59,1.77V115h.32a1,1,0,0,1,.5.11.44.44,0,0,1,.15.36.4.4,0,0,1-.16.38,1,1,0,0,1-.57.11H431.1a1,1,0,0,1-.56-.1.51.51,0,0,1-.12-.39.46.46,0,0,1,.14-.37,1,1,0,0,1,.54-.1h.25v-2.84A1.77,1.77,0,0,0,431,111a1.26,1.26,0,0,0-1.05-.43,1.84,1.84,0,0,0-1.24.48,1.5,1.5,0,0,0-.53,1.17V115h.24a1,1,0,0,1,.55.1.41.41,0,0,1,.15.37.47.47,0,0,1-.13.39,1,1,0,0,1-.6.1h-1.61a.63.63,0,0,1-.42-.12.47.47,0,0,1-.14-.37.38.38,0,0,1,.16-.37,1.33,1.33,0,0,1,.62-.1Z" transform="translate(-22.68 -22.39)"/><path class="cls-3" d="M439.64,115.12a4.18,4.18,0,0,1-1.21.78,3.7,3.7,0,0,1-1.36.26,2.37,2.37,0,0,1-1.65-.56,2.1,2.1,0,0,1,0-3l.22-.19a3.9,3.9,0,0,1,2.33-.6,7.16,7.16,0,0,1,.8.05,3.57,3.57,0,0,1,.83.16h0a1.54,1.54,0,0,0-.38-1.16,1.58,1.58,0,0,0-1.16-.37,3.05,3.05,0,0,0-1.19.28,3,3,0,0,1-.87.29.42.42,0,0,1-.33-.16.61.61,0,0,1-.13-.41c0-.27.25-.5.76-.69a5.75,5.75,0,0,1,1.93-.28,2.16,2.16,0,0,1,2.43,2.42v3H441a1.33,1.33,0,0,1,.65.1.38.38,0,0,1,.17.37.47.47,0,0,1-.14.37.6.6,0,0,1-.41.12H440.2a.52.52,0,0,1-.32-.11.6.6,0,0,1-.16-.34Zm-.05-2.15a4.58,4.58,0,0,0-.73-.18,4.14,4.14,0,0,0-.7-.06,3.28,3.28,0,0,0-1.66.36,1,1,0,0,0-.61,1,1,1,0,0,0,.38.77,1.56,1.56,0,0,0,1,.3,3,3,0,0,0,1.61-.45c.49-.31.74-.62.74-1Z" transform="translate(-22.68 -22.39)"/><path class="cls-3" d="M448.34,110.06a.85.85,0,0,1,.49.12.41.41,0,0,1,.15.36.45.45,0,0,1-.14.36.67.67,0,0,1-.43.12h-2.77v2.29a2.58,2.58,0,0,0,.29,1.47,1.21,1.21,0,0,0,1,.36,4,4,0,0,0,1.49-.36,4.12,4.12,0,0,1,1.07-.37.43.43,0,0,1,.32.14.48.48,0,0,1,.14.34.52.52,0,0,1-.17.39,1.78,1.78,0,0,1-.57.32,7.46,7.46,0,0,1-1.21.4,4.22,4.22,0,0,1-1,.13,3.24,3.24,0,0,1-1.34-.26,1.81,1.81,0,0,1-.81-.76,1.67,1.67,0,0,1-.19-.57,5.6,5.6,0,0,1-.06-1V111h-1.16a.57.57,0,0,1-.42-.11.46.46,0,0,1-.13-.37.41.41,0,0,1,.18-.38,1.75,1.75,0,0,1,.75-.1h.78V108.3a.68.68,0,0,1,.12-.44.53.53,0,0,1,.4-.14.46.46,0,0,1,.41.17,1.73,1.73,0,0,1,.12.78v1.39Z" transform="translate(-22.68 -22.39)"/><path class="cls-3" d="M455.51,115h2.2a.6.6,0,0,1,.39.11.48.48,0,0,1,.12.36.54.54,0,0,1-.11.39.7.7,0,0,1-.45.1h-5.29a.6.6,0,0,1-.41-.12.47.47,0,0,1-.14-.37.43.43,0,0,1,.14-.35.67.67,0,0,1,.43-.12h2.09v-4.39h-1.34a.61.61,0,0,1-.43-.13.44.44,0,0,1-.15-.36.43.43,0,0,1,.14-.35.6.6,0,0,1,.41-.12h2a.53.53,0,0,1,.3.07.23.23,0,0,1,.1.21Zm-1.26-7.32a2,2,0,0,1,.13-.93c.09-.13.28-.19.57-.19a.72.72,0,0,1,.56.16,1.33,1.33,0,0,1,.14.76,1.23,1.23,0,0,1-.13.73.78.78,0,0,1-.57.14.94.94,0,0,1-.57-.13.77.77,0,0,1-.13-.51Z" transform="translate(-22.68 -22.39)"/><path class="cls-3" d="M466.87,112.84a3.13,3.13,0,0,1-1,2.39,4.07,4.07,0,0,1-5.18,0,3.36,3.36,0,0,1,0-4.75l0,0a4.06,4.06,0,0,1,5.17,0A3.09,3.09,0,0,1,466.87,112.84Zm-3.59,2.36a2.35,2.35,0,0,0,1.72-.67,2.45,2.45,0,0,0,0-3.39,2.53,2.53,0,0,0-3.44,0,2.48,2.48,0,0,0,0,3.4A2.41,2.41,0,0,0,463.28,115.2Z" transform="translate(-22.68 -22.39)"/><path class="cls-3" d="M469.13,115v-4.38H469a1.28,1.28,0,0,1-.64-.11.44.44,0,0,1-.18-.38.43.43,0,0,1,.15-.37.69.69,0,0,1,.46-.11h1a.45.45,0,0,1,.28.07.26.26,0,0,1,.11.21v.46a3.61,3.61,0,0,1,1-.68,2.29,2.29,0,0,1,1-.23,2.1,2.1,0,0,1,1.62.65,2.49,2.49,0,0,1,.59,1.77V115h.33a.93.93,0,0,1,.49.11.41.41,0,0,1,.16.36.43.43,0,0,1-.17.38,1,1,0,0,1-.57.11h-1.51a1,1,0,0,1-.56-.1.47.47,0,0,1-.13-.39.41.41,0,0,1,.15-.37,1,1,0,0,1,.54-.1h.24v-2.84A1.78,1.78,0,0,0,473,111a1.3,1.3,0,0,0-1.06-.43,1.79,1.79,0,0,0-1.23.48,1.5,1.5,0,0,0-.53,1.17V115h.24a1,1,0,0,1,.55.1.4.4,0,0,1,.14.37.51.51,0,0,1-.12.39,1,1,0,0,1-.6.1h-1.61a.63.63,0,0,1-.42-.12.46.46,0,0,1-.14-.37.38.38,0,0,1,.16-.37,1.2,1.2,0,0,1,.62-.1Z" transform="translate(-22.68 -22.39)"/><path class="cls-2" d="M489,111.17h2.48a.54.54,0,0,1,.38.15.51.51,0,0,1,.16.37.44.44,0,0,1-.15.36.62.62,0,0,1-.39.14H489v2.56a.63.63,0,0,1-.14.4.5.5,0,0,1-.73,0,.54.54,0,0,1-.15-.38v-2.56H485.5a.62.62,0,0,1-.39-.14.42.42,0,0,1-.16-.36.53.53,0,0,1,.17-.36.55.55,0,0,1,.38-.16H488v-2.55a.53.53,0,0,1,.14-.4.51.51,0,0,1,.37-.15.46.46,0,0,1,.37.15.53.53,0,0,1,.14.4Z" transform="translate(-22.68 -22.39)"/><path class="cls-2" d="M504,110a.29.29,0,0,1-.25-.09.59.59,0,0,1-.1-.34l-.21-2.53v0a.37.37,0,0,1,.07-.25.31.31,0,0,1,.24-.08h.65a.29.29,0,0,1,.23.08.33.33,0,0,1,.08.25h0l-.21,2.53a.59.59,0,0,1-.1.34.3.3,0,0,1-.24.09Zm2.42,0a.29.29,0,0,1-.25-.09.67.67,0,0,1-.1-.34l-.21-2.53v0a.33.33,0,0,1,.08-.25.29.29,0,0,1,.23-.08h.66a.32.32,0,0,1,.23.08.33.33,0,0,1,.08.25h0l-.22,2.53a.59.59,0,0,1-.1.34.3.3,0,0,1-.24.09Z" transform="translate(-22.68 -22.39)"/><path class="cls-3" d="M524,110.06a.78.78,0,0,1,.49.12.41.41,0,0,1,.15.36.43.43,0,0,1-.14.36.66.66,0,0,1-.43.12H521.3v2.29a2.58,2.58,0,0,0,.29,1.47,1.21,1.21,0,0,0,1,.36,4,4,0,0,0,1.49-.36,4.12,4.12,0,0,1,1.07-.37.46.46,0,0,1,.46.48.52.52,0,0,1-.17.39,1.78,1.78,0,0,1-.57.32,8.53,8.53,0,0,1-1.21.39,3.76,3.76,0,0,1-1,.13,3.31,3.31,0,0,1-1.35-.26,1.81,1.81,0,0,1-.81-.76,1.91,1.91,0,0,1-.19-.57,5.6,5.6,0,0,1-.06-1V111H519a.57.57,0,0,1-.42-.11.46.46,0,0,1-.13-.37.41.41,0,0,1,.18-.38,1.77,1.77,0,0,1,.76-.1h.77V108.3a.58.58,0,0,1,.13-.44.51.51,0,0,1,.39-.14.48.48,0,0,1,.42.17,1.9,1.9,0,0,1,.11.78v1.39Z" transform="translate(-22.68 -22.39)"/><path class="cls-3" d="M534.08,112.84a3.13,3.13,0,0,1-1,2.39,4.07,4.07,0,0,1-5.18,0,3.38,3.38,0,0,1,0-4.78,4.1,4.1,0,0,1,5.18,0A3.13,3.13,0,0,1,534.08,112.84Zm-3.59,2.36a2.35,2.35,0,0,0,1.72-.67,2.45,2.45,0,0,0,0-3.39,2.53,2.53,0,0,0-3.44,0,2.48,2.48,0,0,0,0,3.4A2.41,2.41,0,0,0,530.49,115.2Z" transform="translate(-22.68 -22.39)"/><path class="cls-3" d="M541,116a.27.27,0,0,1-.21-.07.66.66,0,0,1,0-.28v-.56a2.88,2.88,0,0,1-1,.8,3.06,3.06,0,0,1-1.33.28,2.88,2.88,0,0,1-2.17-.92,3.44,3.44,0,0,1,.06-4.64,3.34,3.34,0,0,1,3.58-.69,2.62,2.62,0,0,1,1,.74V108h-.36a1.83,1.83,0,0,1-.77-.11.41.41,0,0,1-.18-.38.47.47,0,0,1,.14-.37A.72.72,0,0,1,540,107h1.4a.53.53,0,0,1,.3.07.27.27,0,0,1,.09.22V115h.31a.89.89,0,0,1,.48.11.44.44,0,0,1,.15.36.47.47,0,0,1-.13.36.43.43,0,0,1-.34.13Zm-4.48-3.07a2.09,2.09,0,0,0,.61,1.55,2.11,2.11,0,0,0,1.54.6,2,2,0,0,0,1.55-.63,2.35,2.35,0,0,0,0-3.15,2.12,2.12,0,0,0-1.56-.62,2.07,2.07,0,0,0-1.56.63,2.24,2.24,0,0,0-.63,1.61Z" transform="translate(-22.68 -22.39)"/><path class="cls-3" d="M548.86,115.12a4.23,4.23,0,0,1-1.22.78,3.68,3.68,0,0,1-1.35.26,2.37,2.37,0,0,1-1.65-.56,2.1,2.1,0,0,1,0-3l.22-.19a3.9,3.9,0,0,1,2.33-.6,7.16,7.16,0,0,1,.8.05,3.57,3.57,0,0,1,.83.16h0a1.33,1.33,0,0,0-1.11-1.53,1.3,1.3,0,0,0-.44,0,3.05,3.05,0,0,0-1.19.28,2.91,2.91,0,0,1-.86.29.37.37,0,0,1-.33-.16.61.61,0,0,1-.13-.41q0-.41.75-.69a5.75,5.75,0,0,1,1.93-.28,2.48,2.48,0,0,1,1.82.61,2.45,2.45,0,0,1,.62,1.81v3h.33a1.33,1.33,0,0,1,.65.1.38.38,0,0,1,.17.37.47.47,0,0,1-.14.37.6.6,0,0,1-.41.12H549.4a.52.52,0,0,1-.32-.11.54.54,0,0,1-.16-.34Zm-.05-2.15a4.58,4.58,0,0,0-.73-.18,4.14,4.14,0,0,0-.7-.06,3.18,3.18,0,0,0-1.66.36,1,1,0,0,0-.61,1,1,1,0,0,0,.38.77,1.5,1.5,0,0,0,1,.3,3,3,0,0,0,1.61-.45c.49-.31.74-.62.74-1Z" transform="translate(-22.68 -22.39)"/><path class="cls-3" d="M555.18,117.74h.29a1.44,1.44,0,0,1,.68.11.41.41,0,0,1,.18.39.45.45,0,0,1-.14.36.6.6,0,0,1-.41.12h-3.15a.77.77,0,0,1-.45-.11.5.5,0,0,1-.13-.37.47.47,0,0,1,.14-.37.53.53,0,0,1,.4-.13h1.48l1.11-2.18-2.51-4.92a1.2,1.2,0,0,1-.62-.11.51.51,0,0,1,0-.72h0a.6.6,0,0,1,.41-.12h1.91a.9.9,0,0,1,.51.1.55.55,0,0,1,0,.75,1.24,1.24,0,0,1-.63.11H554l1.85,3.77,1.89-3.77h-.27a1.32,1.32,0,0,1-.65-.11.41.41,0,0,1-.18-.38.5.5,0,0,1,.13-.37.94.94,0,0,1,.52-.1h1.69a.6.6,0,0,1,.41.12.43.43,0,0,1,.14.35.43.43,0,0,1-.15.37,1,1,0,0,1-.54.12Z" transform="translate(-22.68 -22.39)"/><path class="cls-3" d="M562.75,114.87a1.12,1.12,0,0,1,.38-.87,1.31,1.31,0,0,1,1-.34,1.46,1.46,0,0,1,1,.33,1.13,1.13,0,0,1,.37.88,1.1,1.1,0,0,1-.37.88,1.4,1.4,0,0,1-1,.34,1.39,1.39,0,0,1-1-.34A1.14,1.14,0,0,1,562.75,114.87Z" transform="translate(-22.68 -22.39)"/><path class="cls-2" d="M579.61,110a.34.34,0,0,1-.25-.09.67.67,0,0,1-.1-.34l-.21-2.53v0a.33.33,0,0,1,.08-.25.29.29,0,0,1,.23-.08H580a.31.31,0,0,1,.24.08.37.37,0,0,1,.07.25h0l-.2,2.53a.6.6,0,0,1-.11.34.3.3,0,0,1-.24.09Zm2.42,0a.34.34,0,0,1-.25-.09.67.67,0,0,1-.1-.34l-.21-2.53v0a.33.33,0,0,1,.08-.25.32.32,0,0,1,.23-.08h.66a.32.32,0,0,1,.23.08.33.33,0,0,1,.08.25h0l-.21,2.53a.6.6,0,0,1-.11.34.3.3,0,0,1-.24.09Z" transform="translate(-22.68 -22.39)"/><path class="cls-2" d="M587.9,118.41a1.91,1.91,0,0,1,.23-.6q.24-.47.36-.75a12,12,0,0,0,.66-2,9.31,9.31,0,0,0,0-3.59,9.13,9.13,0,0,0-.51-1.69c-.12-.3-.28-.66-.47-1.06a2.68,2.68,0,0,1-.3-.77.34.34,0,0,1,.07-.22.23.23,0,0,1,.18-.08.74.74,0,0,1,.48.22,3.7,3.7,0,0,1,.6.71,7.61,7.61,0,0,1,1.09,2.19,7.85,7.85,0,0,1-.85,6.63,6,6,0,0,1-.74,1,.92.92,0,0,1-.58.31.25.25,0,0,1-.18-.08A.44.44,0,0,1,587.9,118.41Z" transform="translate(-22.68 -22.39)"/><g id="Group-2-Copy"><path id="Line-5-Copy-2" class="cls-4" d="M381.22,128v10.15h97.86V128" transform="translate(-22.68 -22.39)"/><path id="Line-6-Copy-2" class="cls-4" d="M432.22,138.18v11" transform="translate(-22.68 -22.39)"/></g><path id="PARAMETERS-ARE-TREAT" class="cls-5" d="M234.7,165.18v-7.89h2.62a4.76,4.76,0,0,1,1.59.24,2.08,2.08,0,0,1,1,.78,2.24,2.24,0,0,1,.39,1.35,3.07,3.07,0,0,1-.15,1,2.1,2.1,0,0,1-1.41,1.35,5.18,5.18,0,0,1-1.46.19h-1.19v3Zm2.46-4a3.39,3.39,0,0,0,.78-.09,1.64,1.64,0,0,0,.51-.22.86.86,0,0,0,.3-.33,1.3,1.3,0,0,0,.14-.39,1.41,1.41,0,0,0,0-.41,1.2,1.2,0,0,0-.42-1,1.78,1.78,0,0,0-1.18-.34h-1.2v2.76Zm2.82,4,2.89-7.87h1.59l2.85,7.87h-1.5L245,163h-2.76l-.78,2.22Zm2.67-3.3h2l-1-3.2Zm5.4,3.3v-7.89H251a8.39,8.39,0,0,1,1,.06,3.94,3.94,0,0,1,.84.19,2,2,0,0,1,.64.39,1.69,1.69,0,0,1,.38.63,2.4,2.4,0,0,1,.15.92,2,2,0,0,1-1.43,2.06,5.52,5.52,0,0,1,.72,1.22l1.17,2.42h-1.59l-.92-2.05c-.34-.74-.56-1.18-.64-1.31h-1.83v3.38Zm3-4.42a1.88,1.88,0,0,0,1.2-.3,1.15,1.15,0,0,0,.37-1,1,1,0,0,0-.37-.85,2,2,0,0,0-1.14-.28h-1.67v2.38h1.61Zm3.61,4.42,2.9-7.87h1.58l2.86,7.87h-1.5l-.78-2.22H257l-.79,2.22Zm2.67-3.3h2l-1-3.2Zm5.45,3.3v-7.86h1.72l2.38,5.68,2.39-5.68H271v7.86h-1.34v-6.11l-.2.59-2,5h-1.25l-2-5-.2-.59.05,2.28v3.86Zm9.89,0v-7.86h4.77l-.06,1.15h-3.26v2h3.1v1.16h-3.1V164h3.38l-.05,1.16Zm7.71,0v-6.7h-2.3v-1.16h6v1.16H281.8v6.7Zm4.59,0v-7.86h4.77l-.06,1.15h-3.26v2h3.1v1.16h-3.1V164h3.38l-.05,1.16Zm6.15,0v-7.89H294a8.39,8.39,0,0,1,1,.06,4,4,0,0,1,.83.19,1.75,1.75,0,0,1,.64.39,1.71,1.71,0,0,1,.39.63,2.89,2.89,0,0,1,.14.92,2,2,0,0,1-1.42,2.06,6.52,6.52,0,0,1,.72,1.22l1.17,2.42H296l-.92-2.05c-.35-.74-.56-1.18-.65-1.31h-1.82v3.38Zm3-4.42a1.91,1.91,0,0,0,1.21-.3,1.18,1.18,0,0,0,.36-1,1,1,0,0,0-.37-.85,1.87,1.87,0,0,0-1.13-.28h-1.67v2.38h1.6Zm6.69,4.53a5.07,5.07,0,0,1-2.55-.65l.35-1.16a5.53,5.53,0,0,0,1.1.45,3.85,3.85,0,0,0,1.16.18,1.58,1.58,0,0,0,1.05-.3,1.08,1.08,0,0,0,.35-.86c0-.49-.33-.84-1-1l-.39-.11-.6-.18-.41-.14a2.07,2.07,0,0,1-1.58-2.08,1.93,1.93,0,0,1,.76-1.65,3.17,3.17,0,0,1,2-.58,5,5,0,0,1,2.46.58l-.44,1.07a4.78,4.78,0,0,0-2-.48,1.82,1.82,0,0,0-1,.23.89.89,0,0,0-.35.76.83.83,0,0,0,.65.86l.63.2.66.21a3.55,3.55,0,0,1,1.54.88,2.18,2.18,0,0,1,.47,1.47,2,2,0,0,1-.8,1.73,3.51,3.51,0,0,1-2,.57Zm6.22-.11,2.89-7.87h1.59l2.85,7.87H313l-.78-2.22h-2.76l-.78,2.22Zm2.67-3.3h2c-.65-2.07-1-3.14-1-3.2Zm5.41,3.3v-7.89H318a8.39,8.39,0,0,1,1,.06,4,4,0,0,1,.83.19,1.75,1.75,0,0,1,.64.39,1.71,1.71,0,0,1,.39.63,2.89,2.89,0,0,1,.14.92,2,2,0,0,1-1.42,2.06,6.52,6.52,0,0,1,.72,1.22l1.17,2.42H320l-.92-2.05c-.35-.74-.56-1.18-.65-1.31h-1.82v3.38Zm3-4.42a1.91,1.91,0,0,0,1.21-.3,1.18,1.18,0,0,0,.36-1,1,1,0,0,0-.37-.85,1.87,1.87,0,0,0-1.13-.28h-1.67v2.38h1.6Zm4.42,4.42v-7.86h4.77l-.06,1.15H324v2h3.09v1.16H324V164h3.37l-.05,1.16Zm10.62,0v-6.7H331v-1.16h6v1.16h-2.28v6.7Zm4.55,0v-7.89h2.92a8.39,8.39,0,0,1,1,.06,4,4,0,0,1,.83.19,1.75,1.75,0,0,1,.64.39,1.59,1.59,0,0,1,.39.63,2.64,2.64,0,0,1,.14.92,2,2,0,0,1-1.42,2.06,6.52,6.52,0,0,1,.72,1.22l1.17,2.42H342.5l-.92-2.05c-.35-.74-.56-1.18-.64-1.31h-1.83v3.38Zm3.05-4.42a1.88,1.88,0,0,0,1.2-.3,1.21,1.21,0,0,0,.37-1,1,1,0,0,0-.37-.85,2,2,0,0,0-1.14-.28h-1.67v2.38h1.61Zm4.42,4.42v-7.86h4.77l-.06,1.15h-3.26v2h3.1v1.16h-3.1V164H350l-.05,1.16Zm5.32,0,2.9-7.87H355l2.85,7.87h-1.49l-.78-2.22h-2.76l-.78,2.22Zm2.67-3.3h2c-.65-2.07-1-3.14-1-3.2Zm6.54,3.3v-6.7h-2.3v-1.16h6v1.16h-2.28v6.7Zm4.59,0v-7.86h4.77l-.06,1.15h-3.26v2H369v1.16h-3.1V164h3.38l0,1.16Zm7.65-1.16h1a2.47,2.47,0,0,0,2.75-2.15,2.15,2.15,0,0,0,0-.62,2.72,2.72,0,0,0-.72-2.1,3.14,3.14,0,0,0-2.19-.66h-.88Zm-1.46,1.16v-7.86h2.28a6.8,6.8,0,0,1,1.85.23,4.12,4.12,0,0,1,1.4.71,3,3,0,0,1,.9,1.23,4.46,4.46,0,0,1,.32,1.73,3.73,3.73,0,0,1-1.15,2.94,4.65,4.65,0,0,1-3.19,1Zm11,0v-7.86h1.46V164h3.29v1.16Zm5.79,0v-7.86h1.46v7.86Zm3.19,0v-7.86h1.47v3.54c.25-.34.77-1,1.56-1.88l1.4-1.66h1.72l-3,3.54,3.16,4.32h-1.71l-2.56-3.52-.6.5v3Zm6.94,0v-7.86h4.77l-.06,1.15H399v2h3.09v1.16H399V164h3.37l-.05,1.16Zm14.26,0L409,157.31h1.5l1.66,4.86c.06.17.21.67.45,1.48,0-.06.08-.29.19-.7a6.48,6.48,0,0,1,.24-.76l.81-2.43c.5-1.49.78-2.31.82-2.45h1.49l-2.83,7.87Zm3.67,0,2.9-7.87H420l2.85,7.87h-1.49l-.78-2.22H417.8l-.79,2.22Zm2.67-3.31h2l-1-3.2Zm5.41,3.31v-7.89h2.92a8.39,8.39,0,0,1,1,.06,4,4,0,0,1,.83.19,1.63,1.63,0,0,1,.64.39,1.59,1.59,0,0,1,.39.63,2.64,2.64,0,0,1,.14.92,2,2,0,0,1-1.42,2.06,5.69,5.69,0,0,1,.72,1.21l1.17,2.43h-1.4l-.92-2.05c-.35-.74-.56-1.18-.64-1.32H425v3.38Zm3-4.42a1.88,1.88,0,0,0,1.2-.3,1.21,1.21,0,0,0,.37-1,1,1,0,0,0-.38-.85,1.87,1.87,0,0,0-1.13-.28H425v2.38h1.61Zm4.51,4.42v-7.87h1.46v7.87Zm2.33,0,2.9-7.87h1.58l2.86,7.87h-1.5l-.78-2.22h-2.75l-.79,2.22Zm2.67-3.31h2l-1-3.2Zm5.5,3.31v-7.87h2.45a4.69,4.69,0,0,1,2.33.46,1.61,1.61,0,0,1,.77,1.52,1.93,1.93,0,0,1,0,.34,1.64,1.64,0,0,1-.1.38,1.35,1.35,0,0,1-.19.38,1.72,1.72,0,0,1-.86.59,1.91,1.91,0,0,1,1.11.68,2.2,2.2,0,0,1-.4,2.94,3.54,3.54,0,0,1-2.17.58Zm1.45-1.05h1.27c1.11,0,1.67-.44,1.67-1.31a1.08,1.08,0,0,0-.42-.95,2.23,2.23,0,0,0-1.29-.29h-1.23Zm0-3.57h1.25c1,0,1.45-.36,1.45-1.1a.89.89,0,0,0-.42-.85,2.86,2.86,0,0,0-1.32-.23h-1Zm5.71,4.62v-7.87h1.45V164h3.3l-.05,1.16Zm5.75,0v-7.87h4.77l-.06,1.16H456v2h3.09v1.15H456V164h3.37l-.05,1.16Zm8.4.11a5,5,0,0,1-2.56-.66l.36-1.15a5,5,0,0,0,1.1.45,4.17,4.17,0,0,0,1.16.17,1.56,1.56,0,0,0,1-.3,1,1,0,0,0,.36-.85c0-.5-.33-.84-1-1l-.39-.11-.61-.19-.4-.13a2.11,2.11,0,0,1-1.59-2.09,2,2,0,0,1,.76-1.65,3.32,3.32,0,0,1,2-.58,4.88,4.88,0,0,1,2.45.59l-.44,1.06a4.86,4.86,0,0,0-2-.47,1.74,1.74,0,0,0-1,.23.87.87,0,0,0-.35.76.81.81,0,0,0,.65.85l.63.21.66.21a3.55,3.55,0,0,1,1.54.88,2.17,2.17,0,0,1,.46,1.47,2,2,0,0,1-.79,1.73,3.44,3.44,0,0,1-1.89.57Zm8.42-.11-2.13-7.87h1.45l1.52,6.13,1.8-6.09h1.39l1.7,6.11,1.56-6.15h1.45l-2.21,7.87h-1.5l-1.69-5.76-1.84,5.76Zm9.71,0v-7.87h1.46v7.87Zm4.72,0v-6.7H483.5v-1.17h6v1.17h-2.28v6.7Zm4.59,0v-7.87h1.46v3.22h3.55v-3.22h1.46v7.87h-1.46v-3.5h-3.55v3.5Zm8.2,0v-7.87H500v7.87Zm3.2,0v-7.87h1.55c.28.44.84,1.32,1.7,2.65l1.56,2.41.28.42.28.42v-5.92h1.32v7.87h-1.56l-3.55-5.53-.26-.42v6Zm10.39,0,2.89-7.87h1.59l2.85,7.87H518l-.78-2.22h-2.76l-.78,2.22Zm2.67-3.31h2c-.65-2.06-1-3.13-1-3.2Zm8.4,3.31v-7.87h4.65v1.16h-3.16v2.23h3v1.15h-3v3.33Zm9,.11a3.23,3.23,0,0,1-2.34-.77,2.87,2.87,0,0,1-.8-2.17v-5h1.46v4.92a2.14,2.14,0,0,0,.4,1.43,1.73,1.73,0,0,0,3-1.44v-4.91h1.46v5.05a2.81,2.81,0,0,1-.82,2.16,3.27,3.27,0,0,1-2.22.73Zm4.82-.11v-7.87h1.54L540.3,160c.85,1.32,1.37,2.13,1.56,2.41,0,.09.14.22.28.42a4.9,4.9,0,0,1,.27.42v-5.92h1.33v7.87h-1.57l-3.55-5.53-.26-.42v6Zm11.78.11a3.57,3.57,0,0,1-2.74-1.08,4.21,4.21,0,0,1-1-3A4,4,0,0,1,546,158.3a3.66,3.66,0,0,1,2.76-1.1,4.11,4.11,0,0,1,2.34.64l-.46,1.1a3.46,3.46,0,0,0-1.85-.56,2.06,2.06,0,0,0-1.71.78,3.87,3.87,0,0,0,0,4.21,2.12,2.12,0,0,0,1.73.74,4.35,4.35,0,0,0,2-.49l.2,1.14a4.37,4.37,0,0,1-2.18.53Zm5.07-.11v-6.7h-2.29v-1.17h6v1.17h-2.28v6.7Zm4.71,0v-7.87h1.45v7.87Zm6.72-1.07a2,2,0,0,0,1.72-.75,3.26,3.26,0,0,0,.58-2.1,3.38,3.38,0,0,0-.58-2.13,2.34,2.34,0,0,0-3.31-.14,1.85,1.85,0,0,0-.14.14,3.43,3.43,0,0,0-.59,2.13,3.33,3.33,0,0,0,.59,2.1,2.06,2.06,0,0,0,1.88.75Zm0,1.18a3.67,3.67,0,0,1-2.81-1.07,4.16,4.16,0,0,1-1-3,4.12,4.12,0,0,1,1-3,3.83,3.83,0,0,1,6.61,3,4.12,4.12,0,0,1-1,3,3.66,3.66,0,0,1-2.66,1.07Zm5.22-.11v-7.87h1.54l1.7,2.65c.86,1.32,1.38,2.13,1.57,2.41,0,.09.14.22.27.42a3.07,3.07,0,0,1,.28.42v-5.92h1.33v7.87h-1.57L572,159.63l-.26-.42c0,.94,0,1.61,0,2v4Z" transform="translate(-22.68 -22.39)"/><path id="Line-4-Copy" class="cls-6" d="M258.19,58.28v-9" transform="translate(-22.68 -22.39)"/><path id="Line-5-Copy-4" class="cls-4" d="M258.19,48.28h-94v9" transform="translate(-22.68 -22.39)"/><path id="Line-6-Copy-4" class="cls-4" d="M211.19,48.28v-11" transform="translate(-22.68 -22.39)"/><path id="PARAMETERS" class="cls-5" d="M180.33,30.28V22.39H183a4.76,4.76,0,0,1,1.59.24,2.08,2.08,0,0,1,1,.78,2.24,2.24,0,0,1,.39,1.35,3.07,3.07,0,0,1-.15,1,2,2,0,0,1-.48.79,2.15,2.15,0,0,1-.93.55,4.81,4.81,0,0,1-1.46.2,8.13,8.13,0,0,1-1.19-.05v3Zm2.46-4a3.44,3.44,0,0,0,.78-.08,1.7,1.7,0,0,0,.52-.22,1.05,1.05,0,0,0,.29-.34,1.37,1.37,0,0,0,.15-.38,2.94,2.94,0,0,0,0-.42,1.16,1.16,0,0,0-.42-1,1.78,1.78,0,0,0-1.18-.34h-1.2v2.75Zm2.82,4,2.89-7.87h1.59l2.85,7.87h-1.49l-.78-2.22h-2.76l-.78,2.22ZM188.28,27h2c-.65-2.06-1-3.13-1-3.2Zm5.41,3.31V22.39h2.91a8.39,8.39,0,0,1,1,.06,4,4,0,0,1,.83.19,1.75,1.75,0,0,1,.64.39,1.69,1.69,0,0,1,.38.63,2.4,2.4,0,0,1,.15.92,2,2,0,0,1-1.43,2.06,5.69,5.69,0,0,1,.72,1.21l1.17,2.43h-1.59l-.91-2.05c-.35-.74-.57-1.18-.65-1.32h-1.82v3.38Zm3-4.42a1.88,1.88,0,0,0,1.2-.3,1.15,1.15,0,0,0,.37-1,1,1,0,0,0-.37-.85,1.87,1.87,0,0,0-1.13-.28h-1.67v2.38h1.6Zm3.62,4.42,2.89-7.87h1.59l2.85,7.87h-1.5l-.77-2.22h-2.76l-.78,2.22ZM203,27h2c-.65-2.06-1-3.13-1-3.2Zm5.44,3.31v-7.9h1.72l2.38,5.69,2.4-5.69h1.69v7.87h-1.34V24.16l-.2.6-2,5h-1.25l-2-5-.2-.59.05,2.28v3.86Zm9.89,0v-7.9h4.77L223,23.57h-3.25v2h3.09v1.15h-3.09v2.37h3.37l0,1.16Zm7.71,0v-6.7h-2.3v-1.2h6v1.17h-2.28v6.7Zm4.59,0v-7.9h4.77l-.06,1.16h-3.25v2h3.09v1.15h-3.09v2.37h3.37v1.16Zm6.15,0V22.39h2.92a8.39,8.39,0,0,1,1,.06,4,4,0,0,1,.83.19,1.75,1.75,0,0,1,.64.39,1.71,1.71,0,0,1,.39.63,2.64,2.64,0,0,1,.14.92,2,2,0,0,1-1.42,2.06,5.69,5.69,0,0,1,.72,1.21l1.17,2.43h-1.59l-.92-2.05c-.35-.74-.56-1.18-.64-1.32h-1.83v3.38Zm3-4.42a1.9,1.9,0,0,0,1.2-.3,1.18,1.18,0,0,0,.36-1,1,1,0,0,0-.37-.85,1.87,1.87,0,0,0-1.13-.28h-1.67v2.38h1.61Z" transform="translate(-22.68 -22.39)"/></svg>