<?xml version="1.0" encoding="utf-8"?>
<!-- Generator: Adobe Illustrator 24.1.0, SVG Export Plug-In . SVG Version: 6.00 Build 0)  -->
<svg version="1.1" id="Layer_1" xmlns="http://www.w3.org/2000/svg" xmlns:xlink="http://www.w3.org/1999/xlink" x="0px" y="0px"
	 viewBox="0 0 355.4 113.3" style="enable-background:new 0 0 355.4 113.3;" xml:space="preserve">
<style type="text/css">
	.st0{fill:#3068F0;}
	.st1{fill:#9E9E9E;}
	.st2{fill:#FF9B20;}
	.st3{fill:none;stroke:#4A4A4A;stroke-linecap:square;}
	.st4{fill-rule:evenodd;clip-rule:evenodd;fill:#4A4A4A;}
</style>
<path class="st0" d="M23.5,73.9c0.2,0,0.3,0,0.5,0.1c0.1,0.1,0.2,0.2,0.1,0.4c0,0.1,0,0.3-0.1,0.3c-0.1,0.1-0.3,0.1-0.4,0.1h-2.8
	v2.3c-0.1,0.5,0,1,0.3,1.5c0.3,0.3,0.6,0.4,1,0.4c0.5,0,1-0.1,1.5-0.4c0.3-0.2,0.7-0.3,1.1-0.4c0.3,0,0.5,0.2,0.5,0.5c0,0,0,0,0,0
	c0,0.1-0.1,0.3-0.2,0.4c-0.2,0.1-0.4,0.3-0.6,0.3c-0.4,0.2-0.8,0.3-1.2,0.4c-0.3,0.1-0.7,0.1-1,0.1c-0.5,0-0.9-0.1-1.3-0.3
	c-0.4-0.1-0.7-0.4-0.9-0.7c-0.1-0.2-0.2-0.4-0.2-0.6c0-0.3-0.1-0.7-0.1-1v-2.5h-1.1c-0.1,0-0.3,0-0.4-0.1c-0.1-0.1-0.1-0.2-0.1-0.4
	c0-0.2,0-0.3,0.2-0.4c0.2-0.1,0.5-0.1,0.8-0.1h0.8v-1.8c0-0.2,0-0.3,0.1-0.4c0.1-0.1,0.2-0.1,0.4-0.1c0.2,0,0.3,0,0.4,0.2
	c0.1,0.2,0.1,0.5,0.1,0.8v1.4H23.5z"/>
<path class="st0" d="M29.4,78.9h2.3c0.1,0,0.3,0,0.4,0.1c0.1,0.1,0.1,0.2,0.1,0.4c0,0.1,0,0.3-0.1,0.4c-0.1,0.1-0.3,0.1-0.4,0.1
	h-4.5c-0.1,0-0.3,0-0.4-0.1c-0.1-0.1-0.2-0.2-0.1-0.4c0-0.1,0-0.3,0.1-0.3c0.1-0.1,0.3-0.1,0.4-0.1h1.2v-4.4h-0.5
	c-0.3,0-0.6,0-0.8-0.1c-0.1-0.1-0.2-0.2-0.2-0.4c0-0.1,0-0.3,0.1-0.3c0.1-0.1,0.3-0.1,0.4-0.1H29c0.1,0,0.2,0,0.3,0.1
	c0.1,0.1,0.1,0.1,0.1,0.2V75c0.4-0.5,0.8-0.9,1.4-1.2c0.5-0.3,1-0.4,1.5-0.4c0.4,0,0.7,0.1,1,0.2c0.2,0.1,0.4,0.4,0.4,0.6
	c0,0.2-0.1,0.3-0.2,0.4c-0.1,0.1-0.3,0.2-0.4,0.2c-0.2,0-0.4-0.1-0.5-0.2c-0.2-0.1-0.4-0.2-0.7-0.2c-0.4,0-0.8,0.1-1.1,0.4
	c-0.5,0.3-0.9,0.8-1.3,1.2L29.4,78.9z"/>
<path class="st0" d="M39.1,78.9h2.2c0.1,0,0.3,0,0.4,0.1c0.1,0.1,0.1,0.2,0.1,0.4c0,0.1,0,0.3-0.1,0.4c-0.1,0.1-0.3,0.1-0.4,0.1H36
	c-0.1,0-0.3,0-0.4-0.1c-0.1-0.1-0.2-0.2-0.1-0.4c0-0.1,0-0.3,0.1-0.3c0.1-0.1,0.3-0.1,0.4-0.1h2.1v-4.4h-1.4c-0.2,0-0.3,0-0.4-0.1
	c-0.1-0.1-0.2-0.2-0.2-0.4c0-0.1,0-0.3,0.1-0.3c0.1-0.1,0.3-0.1,0.4-0.1h2c0.1,0,0.2,0,0.3,0.1c0.1,0,0.1,0.1,0.1,0.2V78.9z
	 M37.8,71.6c0-0.3,0-0.6,0.1-0.9c0.1-0.1,0.3-0.2,0.6-0.2c0.2,0,0.4,0,0.6,0.2c0.2,0.5,0.2,1,0,1.5c-0.2,0.1-0.4,0.2-0.6,0.1
	c-0.2,0-0.4,0-0.6-0.1C37.9,72,37.8,71.8,37.8,71.6z"/>
<path class="st0" d="M45.1,81.6h1.6c0.1,0,0.3,0,0.4,0.1c0.1,0.1,0.1,0.2,0.1,0.4c0,0.1,0,0.3-0.1,0.4c-0.1,0.1-0.3,0.1-0.5,0.1h-3
	c-0.1,0-0.3,0-0.4-0.1c-0.1-0.1-0.1-0.2-0.1-0.4c0-0.2,0.1-0.3,0.2-0.4c0.2-0.1,0.4-0.1,0.7-0.1h0.1v-7.1H44c-0.2,0-0.4,0-0.7-0.1
	c-0.1-0.1-0.2-0.2-0.2-0.4c0-0.1,0-0.3,0.1-0.4c0.1-0.1,0.3-0.1,0.4-0.1h1c0.1,0,0.2,0,0.3,0.1c0.1,0,0.1,0.1,0.1,0.2v0.7
	c0.3-0.3,0.6-0.5,1-0.7c1.2-0.5,2.6-0.2,3.5,0.7c0.6,0.6,0.9,1.5,0.9,2.3c0,0.8-0.3,1.6-0.8,2.2c-0.6,0.6-1.4,0.9-2.2,0.9
	c-0.5,0-0.9-0.1-1.3-0.3c-0.4-0.2-0.7-0.4-1-0.7L45.1,81.6z M47.2,78.9c0.6,0,1.1-0.2,1.6-0.6c0.4-0.4,0.6-1,0.6-1.5
	c0-0.6-0.2-1.1-0.6-1.5c-0.4-0.4-1-0.6-1.6-0.6c-1.2,0-2.2,1-2.1,2.2c0,0.5,0.2,1.1,0.6,1.5C46.1,78.7,46.6,78.9,47.2,78.9z"/>
<path class="st0" d="M59.6,82.3v0.8H51v-0.8H59.6z"/>
<path class="st0" d="M63.6,76.4l-0.9,3.2c0,0.1-0.1,0.3-0.2,0.4c-0.1,0.1-0.3,0.1-0.4,0.1c-0.1,0-0.3,0-0.4-0.1
	c-0.1-0.1-0.2-0.3-0.2-0.5l-1.6-5h-0.1c-0.1,0-0.3,0-0.4-0.1c-0.1-0.1-0.1-0.2-0.1-0.4c0-0.1,0-0.3,0.1-0.3c0.1-0.1,0.2-0.1,0.4-0.1
	h1.8c0.2,0,0.3,0,0.5,0.1c0.1,0.1,0.1,0.2,0.1,0.4c0,0.1,0,0.2-0.1,0.3c0,0.1-0.1,0.1-0.2,0.2h-0.3H61l1.2,4.1l0.9-3
	c0-0.1,0.1-0.3,0.2-0.4c0.1-0.1,0.3-0.1,0.4-0.1c0.1,0,0.3,0,0.4,0.1c0.1,0.1,0.2,0.3,0.2,0.5l0.8,2.8l1.1-4h-0.5
	c-0.2,0-0.4,0-0.6-0.1C65.1,74.3,65,74.2,65,74c0-0.1,0-0.3,0.1-0.4c0.1-0.1,0.3-0.1,0.5-0.1h1.8c0.1,0,0.2,0,0.3,0.1
	c0.1,0.1,0.1,0.2,0.1,0.3c0,0.1,0,0.3-0.1,0.4c-0.1,0.1-0.3,0.1-0.5,0.1l-1.5,5.1c0,0.1-0.1,0.3-0.2,0.4c-0.1,0.1-0.3,0.1-0.4,0.1
	c-0.1,0-0.3,0-0.4-0.1c-0.1-0.1-0.2-0.3-0.2-0.5L63.6,76.4z"/>
<path class="st0" d="M69.8,77c0,0.6,0.2,1.1,0.7,1.5c0.5,0.4,1.1,0.6,1.7,0.5c0.6,0,1.2-0.2,1.7-0.4c0.4-0.2,0.8-0.3,1.2-0.4
	c0.1,0,0.3,0,0.3,0.1c0.1,0.1,0.1,0.2,0.1,0.3c0,0.1-0.1,0.3-0.1,0.4c-0.1,0.1-0.3,0.2-0.5,0.3c-0.5,0.2-0.9,0.4-1.4,0.5
	C73,80,72.5,80,72,80c-0.9,0-1.8-0.3-2.5-0.9c-0.6-0.6-1-1.5-0.9-2.4c0-0.9,0.3-1.8,1-2.4c0.7-0.6,1.6-1,2.6-0.9
	c0.9,0,1.7,0.3,2.4,0.9c0.6,0.5,1,1.3,0.9,2.1c0,0.2,0,0.4-0.2,0.5C75.1,77,74.8,77,74.5,77L69.8,77L69.8,77z M69.8,76.1h4.4
	c-0.1-0.5-0.3-1-0.7-1.3c-0.4-0.3-0.9-0.5-1.4-0.5c-0.5,0-1.1,0.2-1.5,0.5C70.2,75.1,69.9,75.6,69.8,76.1L69.8,76.1z"/>
<path class="st0" d="M80,71.9h-1.2c-0.3,0-0.6,0-0.8-0.1c-0.1-0.1-0.2-0.2-0.2-0.4c0-0.1,0-0.3,0.2-0.4c0.1-0.1,0.3-0.1,0.4-0.1h2.3
	c0.1,0,0.2,0,0.3,0.1c0.1,0,0.1,0.1,0.1,0.2v7.7h2.1c0.1,0,0.3,0,0.4,0.1c0.1,0.1,0.1,0.2,0.1,0.4c0,0.1,0,0.3-0.1,0.4
	c-0.1,0.1-0.3,0.1-0.4,0.1h-5c-0.1,0-0.3,0-0.4-0.1c-0.1-0.1-0.2-0.2-0.1-0.4c0-0.1,0-0.3,0.1-0.3c0.1-0.1,0.3-0.1,0.4-0.1H80V71.9z
	"/>
<path class="st0" d="M90.9,74L90.9,74c0-0.1,0-0.2,0.1-0.3c0.1-0.1,0.3-0.1,0.4-0.1c0.2,0,0.3,0,0.4,0.2c0.1,0.2,0.1,0.4,0.1,0.7
	v1.3c0,0.3-0.2,0.5-0.4,0.5c0,0-0.1,0-0.1,0c-0.1,0-0.2,0-0.3-0.1c-0.1-0.1-0.2-0.3-0.3-0.4c-0.2-0.3-0.5-0.6-0.8-0.8
	c-0.3-0.2-0.7-0.3-1.1-0.3c-0.6,0-1.3,0.2-1.7,0.6c-0.4,0.4-0.7,1-0.7,1.6c0,0.6,0.2,1.2,0.6,1.7c0.4,0.4,1,0.6,1.6,0.6
	c0.6,0,1.2-0.2,1.7-0.5c0.1,0,0.2-0.1,0.3-0.2c0.2-0.2,0.4-0.3,0.7-0.4c0.2,0,0.5,0.2,0.5,0.4c0,0,0,0,0,0.1c0,0.4-0.3,0.7-1,1.1
	c-0.7,0.4-1.4,0.6-2.2,0.6c-0.9,0-1.8-0.3-2.5-1c-1.3-1.3-1.3-3.4,0-4.7c0,0,0,0,0,0c0.6-0.7,1.5-1,2.5-1c0.3,0,0.7,0.1,1,0.1
	C90.2,73.6,90.6,73.8,90.9,74z"/>
<path class="st0" d="M100.9,76.7c0,0.9-0.3,1.8-1,2.4c-1.5,1.2-3.7,1.2-5.2,0c-1.3-1.3-1.3-3.4,0-4.8c0,0,0,0,0,0
	c1.5-1.2,3.7-1.2,5.2,0C100.5,74.9,100.9,75.8,100.9,76.7z M97.3,79.1c0.6,0,1.3-0.2,1.7-0.7c0.5-0.4,0.7-1.1,0.7-1.7
	c0-0.6-0.2-1.3-0.7-1.7c-1-0.9-2.5-0.9-3.4,0c-0.4,0.5-0.7,1.1-0.7,1.7c0,0.6,0.2,1.3,0.7,1.7C96,78.8,96.6,79.1,97.3,79.1z"/>
<path class="st0" d="M108.2,76.1c0-0.4,0-0.9-0.2-1.3c-0.1-0.2-0.4-0.3-0.6-0.3c-0.3,0-0.6,0.2-0.8,0.4c-0.2,0.4-0.3,0.8-0.3,1.2
	v2.8h0.1c0.2,0,0.4,0,0.6,0.1c0.1,0.1,0.2,0.2,0.1,0.4c0,0.1,0,0.3-0.1,0.4c-0.1,0.1-0.2,0.1-0.3,0.1h-0.9c-0.1,0-0.3,0-0.4-0.1
	c-0.1-0.2-0.1-0.4-0.1-0.6v-3.6c0-0.3-0.1-0.6-0.2-0.8c-0.2-0.2-0.4-0.3-0.6-0.3c-0.2,0-0.4,0.1-0.6,0.2c-0.2,0.1-0.3,0.3-0.4,0.5
	v3.8h0.2c0.2,0,0.4,0,0.6,0.1c0.1,0.1,0.2,0.2,0.1,0.4c0,0.1,0,0.3-0.1,0.4c-0.1,0.1-0.3,0.1-0.4,0.1H102c-0.1,0-0.3,0-0.4-0.1
	c-0.1-0.1-0.1-0.2-0.1-0.4c0-0.1,0-0.3,0.2-0.4c0.2-0.1,0.4-0.1,0.6-0.1h0.1v-4.4h-0.1c-0.2,0-0.4,0-0.7-0.1
	c-0.1-0.1-0.2-0.2-0.2-0.4c0-0.1,0-0.3,0.1-0.3c0.1-0.1,0.3-0.1,0.4-0.1h1c0.2,0,0.2,0,0.3,0.1c0.1,0.1,0.1,0.2,0.1,0.3
	c0.2-0.2,0.4-0.3,0.6-0.4c0.2-0.1,0.5-0.1,0.7-0.1c0.3,0,0.6,0.1,0.8,0.2c0.2,0.2,0.4,0.4,0.5,0.6c0.3-0.5,0.9-0.9,1.5-0.8
	c0.5,0,1,0.2,1.3,0.6c0.3,0.6,0.4,1.2,0.4,1.9v3.1h0.1c0.2,0,0.4,0,0.6,0.1c0.1,0.1,0.2,0.2,0.2,0.4c0,0.1,0,0.3-0.1,0.4
	c-0.1,0.1-0.2,0.1-0.4,0.1h-0.8c-0.2,0-0.3,0-0.4-0.2c-0.1-0.2-0.1-0.3-0.1-0.5L108.2,76.1z"/>
<path class="st0" d="M111.8,77c0,0.6,0.2,1.1,0.7,1.5c0.5,0.4,1.1,0.6,1.7,0.5c0.6,0,1.2-0.2,1.8-0.4c0.4-0.2,0.7-0.3,1.1-0.4
	c0.1,0,0.3,0,0.3,0.1c0.1,0.1,0.1,0.2,0.1,0.3c0,0.1-0.1,0.3-0.2,0.4c-0.1,0.1-0.3,0.2-0.4,0.3c-0.5,0.2-0.9,0.4-1.4,0.5
	c-0.5,0.1-1,0.2-1.4,0.2c-0.9,0-1.8-0.3-2.5-0.9c-1.3-1.4-1.2-3.5,0.1-4.8c0.7-0.6,1.6-1,2.6-0.9c0.9,0,1.7,0.3,2.4,0.9
	c0.6,0.5,1,1.3,0.9,2.1c0,0.2,0,0.4-0.2,0.5c-0.3,0.1-0.6,0.2-0.9,0.1L111.8,77L111.8,77z M111.8,76.1h4.4c-0.1-0.5-0.3-1-0.7-1.3
	c-0.4-0.3-0.9-0.5-1.4-0.5c-0.5,0-1.1,0.2-1.5,0.5C112.2,75.1,111.9,75.6,111.8,76.1L111.8,76.1z"/>
<path class="st1" d="M123.9,71.8c0,0.2-0.1,0.4-0.2,0.6c-0.2,0.3-0.3,0.6-0.3,0.8c-0.3,0.6-0.5,1.3-0.7,2c-0.2,1.2-0.2,2.4,0,3.6
	c0.1,0.6,0.3,1.1,0.5,1.7c0.1,0.3,0.3,0.7,0.5,1.1c0.1,0.2,0.2,0.5,0.3,0.8c0,0.1,0,0.2-0.1,0.2c0,0.1-0.1,0.1-0.2,0.1
	c-0.2,0-0.4-0.1-0.5-0.2c-0.2-0.2-0.4-0.5-0.6-0.7c-0.5-0.7-0.8-1.4-1.1-2.2c-0.2-0.8-0.4-1.6-0.4-2.4c0-0.7,0.1-1.5,0.3-2.2
	c0.2-0.7,0.5-1.4,0.9-2c0.2-0.4,0.4-0.7,0.7-1c0.2-0.2,0.4-0.3,0.6-0.3c0.1,0,0.1,0,0.2,0.1C123.9,71.7,123.9,71.7,123.9,71.8z"/>
<path class="st2" d="M136.4,79.8H136c-0.1,0-0.3,0-0.4-0.1c-0.1-0.1-0.1-0.2-0.1-0.4c0-0.1,0-0.3,0.1-0.4c0.2-0.1,0.4-0.1,0.7-0.1
	h0.4v-6.2h-0.4c-0.2,0-0.5,0-0.7-0.1c-0.1-0.1-0.2-0.2-0.2-0.4c0-0.1,0-0.3,0.1-0.4c0.1-0.1,0.2-0.1,0.4-0.1h6c0.1,0,0.3,0,0.4,0.1
	c0.1,0.1,0.1,0.3,0.1,0.4v1.6c0,0.2,0,0.3-0.1,0.5c-0.1,0.1-0.2,0.2-0.4,0.1c-0.1,0-0.3,0-0.4-0.2c-0.1-0.2-0.1-0.4-0.1-0.7v-1h-3.6
	V75h1.8v-0.4c0-0.2,0-0.4,0.1-0.5c0.1-0.1,0.2-0.2,0.4-0.1c0.1,0,0.3,0,0.3,0.2c0.1,0.2,0.1,0.4,0.1,0.7v1.3c0,0.2,0,0.4-0.1,0.7
	c-0.1,0.1-0.2,0.2-0.4,0.1c-0.1,0-0.3,0-0.3-0.2c-0.1-0.2-0.1-0.4-0.1-0.6v-0.2h-1.8v3h3.6v-1.1c0-0.2,0-0.5,0.1-0.7
	c0.2-0.2,0.5-0.2,0.8,0c0.1,0.2,0.1,0.3,0.1,0.5v1.7c0,0.1,0,0.3-0.1,0.4c-0.1,0.1-0.2,0.1-0.4,0.1L136.4,79.8z"/>
<path class="st2" d="M150.2,76.1c0-0.4,0-0.9-0.2-1.3c-0.1-0.2-0.3-0.4-0.6-0.3c-0.3,0-0.6,0.2-0.8,0.4c-0.2,0.4-0.3,0.8-0.3,1.2
	v2.8h0.1c0.2,0,0.4,0,0.6,0.1c0.1,0.1,0.2,0.2,0.1,0.4c0,0.1,0,0.3-0.1,0.4c-0.1,0.1-0.2,0.1-0.4,0.1h-0.9c-0.1,0-0.3,0-0.4-0.1
	c-0.1-0.2-0.1-0.4-0.1-0.6v-3.6c0-0.3-0.1-0.6-0.2-0.8c-0.2-0.2-0.4-0.3-0.6-0.3c-0.2,0-0.4,0.1-0.6,0.2c-0.2,0.1-0.3,0.3-0.4,0.5
	v3.8h0.2c0.2,0,0.4,0,0.6,0.1c0.1,0.1,0.2,0.2,0.1,0.4c0,0.1,0,0.3-0.1,0.4c-0.1,0.1-0.3,0.1-0.4,0.1H144c-0.1,0-0.3,0-0.4-0.1
	c-0.1-0.1-0.1-0.2-0.1-0.4c0-0.1,0-0.3,0.2-0.4c0.2-0.1,0.4-0.1,0.6-0.1h0.1v-4.4h-0.1c-0.2,0-0.4,0-0.6-0.1
	c-0.1-0.1-0.2-0.2-0.2-0.4c0-0.1,0-0.3,0.1-0.3c0.1-0.1,0.3-0.1,0.4-0.1h1c0.1,0,0.2,0,0.3,0.1c0.1,0.1,0.1,0.2,0.1,0.3
	c0.2-0.2,0.4-0.3,0.6-0.4c0.2-0.1,0.5-0.1,0.7-0.1c0.3,0,0.6,0.1,0.8,0.2c0.2,0.2,0.4,0.4,0.5,0.6c0.2-0.3,0.4-0.5,0.7-0.6
	c0.3-0.1,0.6-0.2,0.9-0.2c0.5,0,1,0.2,1.3,0.6c0.3,0.6,0.5,1.2,0.4,1.9v3.1h0.1c0.2,0,0.4,0,0.6,0.1c0.1,0.1,0.2,0.2,0.1,0.4
	c0,0.1,0,0.3-0.1,0.4c-0.1,0.1-0.2,0.1-0.4,0.1h-0.8c-0.2,0-0.3,0-0.4-0.2c-0.1-0.2-0.1-0.3-0.1-0.5L150.2,76.1z"/>
<path class="st2" d="M154.3,81.6h1.7c0.1,0,0.3,0,0.4,0.1c0.1,0.1,0.1,0.2,0.1,0.4c0,0.1,0,0.3-0.1,0.4c-0.1,0.1-0.3,0.1-0.4,0.1h-3
	c-0.1,0-0.3,0-0.4-0.1c-0.1-0.1-0.2-0.2-0.1-0.4c0-0.2,0.1-0.3,0.2-0.4c0.2-0.1,0.4-0.1,0.6-0.1h0.1v-7.1h-0.1c-0.2,0-0.4,0-0.6-0.1
	c-0.1-0.1-0.2-0.2-0.2-0.4c0-0.1,0-0.3,0.1-0.4c0.1-0.1,0.3-0.1,0.4-0.1h1c0.1,0,0.2,0,0.3,0.1c0.1,0,0.1,0.1,0.1,0.2v0.7
	c0.3-0.3,0.6-0.5,1-0.7c0.4-0.2,0.8-0.2,1.2-0.2c0.9,0,1.7,0.3,2.3,0.9c0.6,0.6,0.9,1.5,0.9,2.3c0,0.8-0.3,1.6-0.9,2.2
	c-0.6,0.6-1.4,0.9-2.2,0.9c-0.5,0-0.9-0.1-1.3-0.3c-0.4-0.2-0.7-0.4-1-0.7L154.3,81.6z M156.4,78.9c0.6,0,1.1-0.2,1.6-0.6
	c0.8-0.9,0.8-2.2,0-3.1c-0.9-0.8-2.2-0.8-3.1,0c-0.8,0.9-0.8,2.2,0,3.1C155.3,78.7,155.9,78.9,156.4,78.9z"/>
<path class="st2" d="M165.1,78.9h2.2c0.1,0,0.3,0,0.4,0.1c0.1,0.1,0.1,0.2,0.1,0.4c0,0.1,0,0.3-0.1,0.4c-0.1,0.1-0.3,0.1-0.4,0.1
	H162c-0.1,0-0.3,0-0.4-0.1c-0.1-0.1-0.2-0.2-0.1-0.4c0-0.1,0-0.3,0.1-0.3c0.1-0.1,0.3-0.1,0.4-0.1h2.1v-4.4h-1.3
	c-0.2,0-0.3,0-0.4-0.1c-0.1-0.1-0.2-0.2-0.1-0.4c0-0.1,0-0.3,0.1-0.3c0.1-0.1,0.3-0.1,0.4-0.1h2c0.1,0,0.2,0,0.3,0.1
	c0.1,0,0.1,0.1,0.1,0.2L165.1,78.9z M163.9,71.6c0-0.3,0-0.6,0.1-0.9c0.1-0.1,0.3-0.2,0.6-0.2c0.2,0,0.4,0,0.6,0.2
	c0.1,0.2,0.2,0.5,0.1,0.8c0,0.3,0,0.5-0.1,0.7c-0.2,0.1-0.4,0.2-0.6,0.1c-0.2,0-0.4,0-0.6-0.1C163.9,72,163.8,71.8,163.9,71.6z"/>
<path class="st2" d="M172.2,78.9h2.3c0.1,0,0.3,0,0.4,0.1c0.1,0.1,0.1,0.2,0.1,0.4c0,0.1,0,0.3-0.1,0.4c-0.1,0.1-0.3,0.1-0.4,0.1
	H170c-0.1,0-0.3,0-0.4-0.1c-0.1-0.1-0.2-0.2-0.1-0.4c0-0.1,0-0.3,0.1-0.3c0.1-0.1,0.3-0.1,0.4-0.1h1.2v-4.4h-0.5
	c-0.3,0-0.6,0-0.8-0.1c-0.1-0.1-0.2-0.2-0.2-0.4c0-0.1,0-0.3,0.1-0.3c0.1-0.1,0.3-0.1,0.4-0.1h1.6c0.1,0,0.2,0,0.3,0.1
	c0.1,0.1,0.1,0.1,0.1,0.2V75c0.4-0.5,0.8-0.9,1.4-1.2c0.5-0.3,1-0.4,1.5-0.4c0.4,0,0.7,0.1,1,0.2c0.2,0.1,0.4,0.4,0.4,0.6
	c0,0.2-0.1,0.3-0.2,0.4c-0.1,0.1-0.3,0.2-0.4,0.2c-0.2,0-0.4-0.1-0.5-0.2c-0.2-0.1-0.4-0.2-0.7-0.2c-0.4,0-0.8,0.1-1.1,0.4
	c-0.5,0.3-0.9,0.7-1.3,1.2L172.2,78.9z"/>
<path class="st2" d="M179,77c0,0.6,0.2,1.1,0.7,1.5c0.5,0.4,1.1,0.6,1.7,0.5c0.6,0,1.2-0.2,1.8-0.4c0.4-0.2,0.7-0.3,1.1-0.4
	c0.1,0,0.3,0,0.3,0.1c0.1,0.1,0.1,0.2,0.1,0.3c0,0.1-0.1,0.3-0.1,0.4c-0.1,0.1-0.3,0.2-0.4,0.3c-0.5,0.2-0.9,0.4-1.4,0.5
	c-0.5,0.1-1,0.2-1.4,0.2c-0.9,0-1.8-0.3-2.5-0.9c-1.3-1.4-1.2-3.5,0.1-4.8c0.7-0.6,1.6-1,2.6-0.9c0.9,0,1.7,0.3,2.4,0.9
	c0.6,0.5,1,1.3,1,2.1c0,0.2,0,0.4-0.2,0.5c-0.3,0.1-0.6,0.2-0.9,0.1C183.7,77,179,77,179,77z M179,76.1h4.4c-0.1-0.5-0.3-1-0.7-1.3
	c-0.4-0.3-0.9-0.5-1.4-0.5c-0.5,0-1.1,0.2-1.5,0.5C179.4,75.1,179.1,75.6,179,76.1z"/>
<path class="st2" d="M196.1,79.6c0,0.2-0.1,0.3-0.1,0.4c-0.1,0.1-0.2,0.1-0.4,0.1c-0.2,0-0.3,0-0.4-0.2c-0.1-0.2-0.2-0.3-0.2-0.5
	l-0.1-1.6v-0.1c0-0.2,0-0.3,0.1-0.5c0.1-0.1,0.3-0.2,0.4-0.1c0.3,0,0.5,0.2,0.6,0.6c0,0.2,0.1,0.3,0.1,0.4c0.2,0.3,0.4,0.6,0.8,0.7
	c0.4,0.2,0.8,0.3,1.2,0.3c0.5,0,1-0.1,1.4-0.4c0.3-0.2,0.6-0.6,0.6-1.1c0-0.3-0.1-0.6-0.3-0.9c-0.3-0.2-0.6-0.4-1-0.4l-1-0.1
	c-0.7-0.1-1.5-0.3-2.1-0.8c-0.4-0.4-0.7-1-0.6-1.5c0-0.7,0.3-1.3,0.9-1.8c0.6-0.5,1.4-0.7,2.1-0.7c0.3,0,0.5,0,0.8,0.1
	c0.3,0.1,0.6,0.2,0.9,0.3c0-0.1,0-0.2,0.1-0.3c0.1-0.1,0.2-0.1,0.3-0.1c0.1,0,0.3,0,0.4,0.1c0.1,0.1,0.2,0.3,0.1,0.4l0.1,1.4v0.1
	c0,0.1,0,0.3-0.1,0.4c-0.1,0.1-0.2,0.1-0.4,0.1c-0.2,0-0.4-0.2-0.6-0.5c0-0.2-0.1-0.3-0.2-0.4c-0.2-0.2-0.4-0.4-0.6-0.5
	c-0.3-0.1-0.7-0.2-1-0.2c-0.5,0-1,0.1-1.3,0.4c-0.3,0.3-0.5,0.6-0.5,1.1c0,0.3,0.1,0.6,0.4,0.8c0.4,0.2,0.8,0.4,1.2,0.4l1.1,0.1
	c0.7,0,1.3,0.3,1.8,0.7c0.4,0.4,0.6,1,0.6,1.5c0,0.7-0.3,1.4-0.9,1.8c-0.7,0.5-1.5,0.7-2.3,0.7c-0.3,0-0.7,0-1-0.1
	C196.7,79.9,196.4,79.8,196.1,79.6z"/>
<path class="st2" d="M208.4,73.9c0.2,0,0.3,0,0.5,0.1c0.1,0.1,0.2,0.2,0.1,0.4c0,0.1,0,0.3-0.1,0.3c-0.1,0.1-0.3,0.1-0.4,0.1h-2.8
	v2.3c-0.1,0.5,0,1,0.3,1.5c0.3,0.3,0.6,0.4,1,0.4c0.5,0,1-0.1,1.5-0.4c0.3-0.2,0.7-0.3,1.1-0.4c0.3,0,0.5,0.2,0.5,0.5c0,0,0,0,0,0
	c0,0.1-0.1,0.3-0.2,0.4c-0.2,0.1-0.4,0.3-0.6,0.3c-0.4,0.2-0.8,0.3-1.2,0.4c-0.3,0.1-0.7,0.1-1,0.1c-0.5,0-0.9-0.1-1.3-0.3
	c-0.3-0.2-0.6-0.4-0.8-0.8c-0.1-0.2-0.2-0.4-0.2-0.6c0-0.3-0.1-0.7-0.1-1v-2.5h-1.2c-0.1,0-0.3,0-0.4-0.1c-0.1-0.1-0.1-0.2-0.1-0.4
	c0-0.2,0-0.3,0.2-0.4c0.2-0.1,0.5-0.1,0.8-0.1h0.8v-1.8c0-0.2,0-0.3,0.1-0.4c0.1-0.1,0.2-0.1,0.4-0.1c0.2,0,0.3,0,0.4,0.2
	c0.1,0.2,0.1,0.5,0.1,0.8v1.4H208.4z"/>
<path class="st2" d="M216.5,79c-0.4,0.3-0.8,0.6-1.2,0.8c-0.4,0.2-0.9,0.3-1.4,0.3c-0.6,0-1.2-0.2-1.6-0.6c-0.8-0.8-0.8-2.1,0-3
	c0.1-0.1,0.1-0.1,0.2-0.2c0.7-0.4,1.5-0.6,2.3-0.6c0.3,0,0.5,0,0.8,0.1c0.3,0,0.6,0.1,0.8,0.2l0,0c0-0.4-0.1-0.8-0.4-1.2
	c-0.3-0.3-0.7-0.4-1.2-0.4c-0.4,0-0.8,0.1-1.2,0.3c-0.3,0.1-0.6,0.2-0.9,0.3c-0.1,0-0.3-0.1-0.3-0.2c-0.1-0.1-0.1-0.3-0.1-0.4
	c0-0.3,0.2-0.5,0.8-0.7c0.6-0.2,1.3-0.3,1.9-0.3c1.2-0.2,2.3,0.7,2.4,1.9c0,0.2,0,0.4,0,0.6v3.1h0.3c0.2,0,0.4,0,0.6,0.1
	c0.1,0.1,0.2,0.2,0.2,0.4c0,0.1,0,0.3-0.1,0.4c-0.1,0.1-0.3,0.1-0.4,0.1H217c-0.1,0-0.2,0-0.3-0.1c-0.1-0.1-0.1-0.2-0.2-0.3
	L216.5,79z M216.4,76.8c-0.2-0.1-0.5-0.1-0.7-0.2c-0.2,0-0.5-0.1-0.7-0.1c-0.6,0-1.1,0.1-1.7,0.4c-0.4,0.2-0.6,0.6-0.6,1
	c0,0.3,0.1,0.6,0.4,0.8c0.3,0.2,0.6,0.3,1,0.3c0.6,0,1.1-0.2,1.6-0.4c0.5-0.3,0.7-0.6,0.7-1L216.4,76.8z"/>
<path class="st2" d="M225.2,73.9c0.2,0,0.3,0,0.5,0.1c0.1,0.1,0.2,0.2,0.1,0.4c0,0.1,0,0.3-0.1,0.3c-0.1,0.1-0.3,0.1-0.4,0.1h-2.8
	v2.3c-0.1,0.5,0,1,0.3,1.5c0.3,0.3,0.6,0.4,1,0.4c0.5,0,1-0.1,1.5-0.4c0.3-0.2,0.7-0.3,1.1-0.4c0.1,0,0.2,0,0.3,0.1
	c0.1,0.1,0.1,0.2,0.1,0.3c0,0.1-0.1,0.3-0.2,0.4c-0.2,0.1-0.4,0.3-0.6,0.3c-0.4,0.2-0.8,0.3-1.2,0.4c-0.3,0.1-0.7,0.1-1,0.1
	c-0.5,0-0.9-0.1-1.3-0.3c-0.3-0.2-0.6-0.4-0.8-0.8c-0.1-0.2-0.2-0.4-0.2-0.6c0-0.3-0.1-0.7-0.1-1v-2.5h-1.2c-0.1,0-0.3,0-0.4-0.1
	c-0.1-0.1-0.1-0.2-0.1-0.4c0-0.2,0.1-0.3,0.2-0.4c0.2-0.1,0.5-0.1,0.8-0.1h0.8v-1.8c0-0.2,0-0.3,0.1-0.4c0.1-0.1,0.3-0.1,0.4-0.1
	c0.2,0,0.3,0,0.4,0.2c0.1,0.2,0.1,0.5,0.1,0.8v1.4H225.2z"/>
<path class="st2" d="M229.4,77c0,0.6,0.2,1.1,0.7,1.5c0.5,0.4,1.1,0.6,1.7,0.5c0.6,0,1.2-0.2,1.8-0.4c0.4-0.2,0.7-0.3,1.1-0.4
	c0.1,0,0.2,0,0.3,0.1c0.1,0.1,0.1,0.2,0.1,0.3c0,0.1-0.1,0.3-0.1,0.4c-0.1,0.1-0.3,0.2-0.5,0.3c-0.5,0.2-0.9,0.4-1.4,0.5
	c-0.5,0.1-1,0.2-1.4,0.2c-0.9,0-1.8-0.3-2.5-0.9c-1.3-1.4-1.2-3.5,0.1-4.8c0.7-0.6,1.6-1,2.6-0.9c0.9,0,1.7,0.3,2.4,0.9
	c0.6,0.5,1,1.3,1,2.1c0,0.2,0,0.4-0.2,0.5c-0.3,0.1-0.6,0.2-0.9,0.1L229.4,77L229.4,77z M229.4,76.1h4.4c-0.1-0.5-0.3-1-0.7-1.3
	c-0.4-0.3-0.9-0.5-1.4-0.5c-0.5,0-1.1,0.1-1.5,0.5C229.8,75.1,229.5,75.6,229.4,76.1L229.4,76.1z"/>
<path class="st2" d="M248.4,79.8h-3.1c-0.1,0-0.3,0-0.4-0.1c-0.1-0.1-0.1-0.2-0.1-0.4c0-0.1,0-0.3,0.1-0.4c0.2-0.1,0.5-0.1,0.7-0.1
	h0.3v-6.2h-0.2c-0.2,0-0.5,0-0.7-0.1c-0.1-0.1-0.2-0.2-0.1-0.4c0-0.1,0-0.3,0.1-0.4c0.1-0.1,0.2-0.1,0.4-0.1h3.2
	c0.8-0.1,1.6,0.1,2.2,0.6c0.5,0.4,0.8,1,0.8,1.6c0,0.3-0.1,0.7-0.2,0.9c-0.2,0.3-0.4,0.5-0.7,0.7c0.4,0.1,0.8,0.4,1.1,0.8
	c0.2,0.4,0.4,0.8,0.4,1.2c0,0.4-0.1,0.8-0.3,1.1c-0.2,0.3-0.5,0.6-0.9,0.8c-0.2,0.1-0.5,0.2-0.7,0.3c-0.4,0.1-0.8,0.1-1.2,0.1H248.4
	z M247,75.2h1.4c0.5,0,1-0.1,1.4-0.3c0.3-0.2,0.5-0.6,0.5-1c0-0.4-0.1-0.7-0.4-0.9c-0.4-0.2-0.8-0.3-1.2-0.3H247V75.2z M247,78.9
	h1.5c0.6,0,1.2-0.1,1.8-0.3c0.4-0.2,0.6-0.6,0.5-1.1c0-0.4-0.2-0.8-0.5-1.1c-0.6-0.3-1.2-0.4-1.8-0.3H247V78.9z"/>
<path class="st2" d="M255.2,77.3c0,0.4,0.1,0.9,0.4,1.3c0.3,0.3,0.7,0.4,1.1,0.4c0.5,0,0.9-0.2,1.3-0.5c0.3-0.3,0.5-0.7,0.5-1.2
	v-2.8h-0.9c-0.1,0-0.3,0-0.4-0.1c-0.1-0.1-0.1-0.2-0.1-0.3c0-0.1,0-0.3,0.1-0.4c0.1-0.1,0.3-0.1,0.4-0.1h1.5c0.1,0,0.3,0,0.4,0.1
	c0.1,0.2,0.1,0.4,0.1,0.6v4.7h0.3c0.2,0,0.3,0,0.5,0.1c0.1,0.1,0.2,0.2,0.1,0.4c0,0.1,0,0.3-0.1,0.4c-0.1,0.1-0.3,0.1-0.4,0.1h-1
	c-0.1,0-0.2,0-0.3-0.1c-0.1,0-0.1-0.1-0.1-0.2v-0.5c-0.3,0.3-0.7,0.5-1.1,0.7c-0.3,0.1-0.7,0.2-1,0.2c-0.6,0-1.2-0.2-1.7-0.6
	c-0.4-0.5-0.6-1.2-0.6-1.8v-3.1H254c-0.2,0-0.4,0-0.6-0.1c-0.1-0.1-0.2-0.2-0.2-0.4c0-0.1,0-0.3,0.1-0.3c0.1-0.1,0.3-0.1,0.4-0.1h1
	c0.1,0,0.2,0,0.3,0.1c0.1,0.1,0.1,0.3,0.1,0.4L255.2,77.3z"/>
<path class="st2" d="M265.9,78.9h2.2c0.1,0,0.3,0,0.4,0.1c0.1,0.1,0.1,0.2,0.1,0.4c0,0.1,0,0.3-0.1,0.4c-0.1,0.1-0.3,0.1-0.4,0.1
	h-5.3c-0.1,0-0.3,0-0.4-0.1c-0.1-0.1-0.1-0.2-0.1-0.4c0-0.1,0-0.3,0.1-0.3c0.1-0.1,0.3-0.1,0.4-0.1h2.1v-4.4h-1.3
	c-0.2,0-0.3,0-0.4-0.1c-0.1-0.1-0.2-0.2-0.1-0.4c0-0.1,0-0.3,0.1-0.3c0.1-0.1,0.3-0.1,0.4-0.1h2c0.1,0,0.2,0,0.3,0.1
	c0.1,0,0.1,0.1,0.1,0.2L265.9,78.9z M264.7,71.6c0-0.3,0-0.6,0.1-0.9c0.1-0.1,0.3-0.2,0.6-0.2c0.2,0,0.4,0,0.6,0.2
	c0.2,0.5,0.2,1,0,1.5c-0.2,0.1-0.4,0.2-0.6,0.1c-0.2,0-0.4,0-0.6-0.1C264.7,72,264.6,71.8,264.7,71.6z"/>
<path class="st2" d="M273.2,71.9h-1.2c-0.3,0-0.6,0-0.8-0.1c-0.1-0.1-0.2-0.2-0.2-0.4c0-0.1,0-0.3,0.1-0.4c0.1-0.1,0.3-0.1,0.4-0.1
	h2.3c0.1,0,0.2,0,0.3,0.1c0.1,0,0.1,0.1,0.1,0.2v7.7h2.1c0.1,0,0.3,0,0.4,0.1c0.1,0.1,0.1,0.2,0.1,0.4c0,0.1,0,0.3-0.1,0.4
	c-0.1,0.1-0.3,0.1-0.4,0.1h-5c-0.1,0-0.3,0-0.4-0.1c-0.1-0.1-0.2-0.2-0.1-0.4c0-0.1,0-0.3,0.1-0.3c0.1-0.1,0.3-0.1,0.4-0.1h1.9
	L273.2,71.9z"/>
<path class="st2" d="M284.2,79.8c-0.1,0-0.1,0-0.2-0.1c0-0.1-0.1-0.2-0.1-0.3v-0.6c-0.3,0.3-0.6,0.6-1,0.8c-0.4,0.2-0.9,0.3-1.3,0.3
	c-0.8,0-1.6-0.3-2.2-0.9c-1.2-1.3-1.2-3.3,0.1-4.7c0.9-0.9,2.4-1.2,3.6-0.7c0.4,0.2,0.7,0.4,1,0.7v-2.6h-0.4c-0.3,0-0.5,0-0.8-0.1
	c-0.1-0.1-0.2-0.2-0.2-0.4c0-0.1,0-0.3,0.1-0.4c0.1-0.1,0.3-0.1,0.4-0.1h1.4c0.1,0,0.2,0,0.3,0.1c0.1,0.1,0.1,0.1,0.1,0.2v7.7h0.3
	c0.2,0,0.3,0,0.5,0.1c0.1,0.1,0.2,0.2,0.1,0.4c0,0.1,0,0.3-0.1,0.4c-0.1,0.1-0.2,0.1-0.4,0.1L284.2,79.8z M279.7,76.8
	c0,1.1,0.8,2.1,2,2.2c0.1,0,0.1,0,0.2,0c0.6,0,1.1-0.2,1.5-0.6c0.4-0.4,0.6-1,0.6-1.6c0-0.6-0.2-1.2-0.6-1.6c-0.4-0.4-1-0.6-1.5-0.6
	c-0.6,0-1.2,0.2-1.6,0.6C279.9,75.6,279.7,76.2,279.7,76.8z"/>
<path class="st2" d="M291.1,78.9h2.2c0.1,0,0.3,0,0.4,0.1c0.1,0.1,0.1,0.2,0.1,0.4c0,0.1,0,0.3-0.1,0.4c-0.1,0.1-0.3,0.1-0.5,0.1
	H288c-0.1,0-0.3,0-0.4-0.1c-0.1-0.1-0.2-0.2-0.1-0.4c0-0.1,0-0.3,0.1-0.3c0.1-0.1,0.3-0.1,0.4-0.1h2.1v-4.4h-1.3
	c-0.2,0-0.3,0-0.4-0.1c-0.1-0.1-0.2-0.2-0.1-0.4c0-0.1,0-0.3,0.1-0.3c0.1-0.1,0.3-0.1,0.4-0.1h2c0.1,0,0.2,0,0.3,0.1
	c0.1,0,0.1,0.1,0.1,0.2V78.9z M289.9,71.6c0-0.3,0-0.6,0.1-0.9c0.1-0.1,0.3-0.2,0.6-0.2c0.2,0,0.4,0,0.6,0.2
	c0.1,0.2,0.2,0.5,0.1,0.8c0,0.3,0,0.5-0.1,0.7c-0.2,0.1-0.4,0.2-0.6,0.1c-0.2,0-0.4,0-0.6-0.1C289.9,72,289.9,71.8,289.9,71.6z"/>
<path class="st2" d="M296.4,78.9v-4.4h-0.1c-0.2,0-0.4,0-0.6-0.1c-0.1-0.1-0.2-0.2-0.2-0.4c0-0.1,0-0.3,0.1-0.4
	c0.1-0.1,0.3-0.1,0.5-0.1h1c0.1,0,0.2,0,0.3,0.1c0.1,0,0.1,0.1,0.1,0.2v0.5c0.3-0.3,0.6-0.5,1-0.7c0.3-0.1,0.7-0.2,1-0.2
	c0.6,0,1.2,0.2,1.6,0.6c0.4,0.5,0.6,1.1,0.6,1.8v3.1h0.3c0.2,0,0.3,0,0.5,0.1c0.1,0.1,0.2,0.2,0.1,0.4c0,0.1,0,0.3-0.2,0.4
	c-0.2,0.1-0.4,0.1-0.6,0.1h-1.5c-0.2,0-0.4,0-0.6-0.1c-0.1-0.1-0.1-0.2-0.1-0.4c0-0.1,0-0.3,0.1-0.4c0.2-0.1,0.4-0.1,0.5-0.1h0.2
	v-2.8c0-0.4-0.1-0.9-0.4-1.2c-0.3-0.3-0.7-0.4-1.1-0.4c-0.5,0-0.9,0.2-1.2,0.5c-0.3,0.3-0.5,0.7-0.5,1.2v2.8h0.2
	c0.2,0,0.4,0,0.6,0.1c0.1,0.1,0.2,0.2,0.1,0.4c0,0.1,0,0.3-0.1,0.4c-0.2,0.1-0.4,0.1-0.6,0.1H296c-0.1,0-0.3,0-0.4-0.1
	c-0.1-0.1-0.2-0.2-0.1-0.4c0-0.1,0-0.3,0.2-0.4c0.2-0.1,0.4-0.1,0.6-0.1L296.4,78.9z"/>
<path class="st2" d="M310.1,79.5c0,0.5,0,0.9-0.1,1.4c-0.1,0.3-0.2,0.5-0.3,0.7c-0.3,0.4-0.6,0.6-1.1,0.8c-0.5,0.2-1.1,0.3-1.6,0.3
	c-0.4,0-0.8,0-1.1-0.2c-0.2-0.1-0.4-0.3-0.4-0.5c0-0.1,0.1-0.3,0.2-0.4c0.1-0.1,0.3-0.2,0.4-0.2c0.1,0,0.3,0,0.6,0
	c0.2,0,0.4,0,0.6,0c0.5,0.1,1-0.1,1.4-0.5c0.3-0.5,0.5-1,0.4-1.6v-0.8c-0.3,0.3-0.6,0.5-0.9,0.7c-0.4,0.2-0.8,0.2-1.2,0.2
	c-0.8,0-1.6-0.3-2.1-0.8c-1.1-1.2-1.1-3.1,0-4.3c0.6-0.6,1.3-0.9,2.1-0.9c0.3,0,0.7,0.1,1,0.2c0.4,0.1,0.7,0.3,1,0.6v-0.5
	c0-0.1,0-0.2,0.1-0.2c0.1-0.1,0.2-0.1,0.3-0.1h1c0.1,0,0.3,0,0.4,0.1c0.2,0.1,0.2,0.3,0.2,0.4c0,0.1-0.1,0.3-0.2,0.4
	c-0.2,0.1-0.4,0.1-0.6,0.1h-0.1L310.1,79.5z M307.1,74.5c-0.5,0-1.1,0.2-1.5,0.6c-0.4,0.4-0.6,0.9-0.6,1.4c0,0.5,0.2,1,0.6,1.4
	c0.8,0.7,2.1,0.7,2.9,0c0.4-0.4,0.6-0.9,0.6-1.4c0-0.5-0.2-1.1-0.6-1.4C308.2,74.7,307.7,74.5,307.1,74.5L307.1,74.5z"/>
<path class="st1" d="M322.7,82.3c0-0.2,0.1-0.4,0.2-0.6c0.1-0.3,0.3-0.6,0.4-0.8c0.3-0.6,0.5-1.3,0.7-2c0.1-0.6,0.2-1.2,0.2-1.9
	c0-0.6-0.1-1.2-0.2-1.7c-0.1-0.6-0.3-1.1-0.5-1.7c-0.1-0.3-0.3-0.7-0.5-1.1c-0.1-0.2-0.2-0.5-0.3-0.8c0-0.1,0-0.2,0.1-0.2
	c0-0.1,0.1-0.1,0.2-0.1c0.2,0,0.4,0.1,0.5,0.2c0.2,0.2,0.4,0.4,0.6,0.7c1,1.3,1.5,3,1.5,4.6c0,0.7-0.1,1.5-0.3,2.2
	c-0.2,0.7-0.5,1.4-0.9,2c-0.2,0.4-0.5,0.7-0.7,1c-0.1,0.2-0.4,0.3-0.6,0.3c-0.1,0-0.1,0-0.2-0.1C322.7,82.4,322.7,82.3,322.7,82.3z"
	/>
<path id="Line-5-Copy" class="st3" d="M310.2,64.5V54.1h-176v10"/>
<path id="Line-6-Copy" class="st3" d="M220.9,54.1v-11"/>
<path id="ARGUMENTS-AS-VALUES" class="st4" d="M163.2,35.5l2.9-7.9h1.6l2.9,7.9H169l-0.8-2.2h-2.8l-0.8,2.2H163.2z M165.8,32.2h2
	l-1-3.2L165.8,32.2z M171.2,35.5v-7.9h2.9c0.3,0,0.7,0,1,0c0.3,0,0.6,0.1,0.8,0.2c0.2,0.1,0.5,0.2,0.6,0.4c0.2,0.2,0.3,0.4,0.4,0.6
	c0.1,0.3,0.2,0.6,0.1,0.9c0.1,0.9-0.5,1.8-1.4,2.1c0.3,0.4,0.5,0.8,0.7,1.2l1.2,2.4H176l-0.9-2.1c-0.4-0.7-0.6-1.2-0.6-1.3h-1.8v3.4
	L171.2,35.5z M174.2,31.1c0.4,0,0.8-0.1,1.2-0.3c0.3-0.3,0.4-0.6,0.4-1c0-0.3-0.1-0.6-0.4-0.9c-0.3-0.2-0.7-0.3-1.1-0.3h-1.7v2.4
	C172.6,31.1,174.2,31.1,174.2,31.1z M182.2,35.6c-1.1,0.1-2.1-0.3-2.8-1.1c-0.7-0.8-1.1-1.9-1-3c0-0.7,0.1-1.4,0.5-2.1
	c0.3-0.6,0.8-1.1,1.4-1.4c0.7-0.4,1.4-0.5,2.2-0.5c0.9,0,1.7,0.2,2.5,0.6l-0.5,1.1c-0.6-0.3-1.3-0.5-2-0.5c-0.7,0-1.4,0.2-1.9,0.8
	c-0.5,0.6-0.7,1.3-0.7,2.1c0,0.7,0.2,1.5,0.6,2.1c0.4,0.5,1.1,0.8,1.8,0.8c0.5,0,0.9-0.1,1.4-0.2v-1.8H182v-1.2h3V35
	c-0.4,0.2-0.9,0.3-1.4,0.4C183.2,35.6,182.7,35.6,182.2,35.6L182.2,35.6z M189.7,35.6c-0.9,0.1-1.7-0.2-2.3-0.8
	c-0.6-0.6-0.9-1.4-0.8-2.2v-5h1.5v4.9c0,0.5,0.1,1,0.4,1.4c0.4,0.3,0.8,0.5,1.3,0.5c0.5,0,1-0.1,1.3-0.5c0.3-0.4,0.4-0.9,0.4-1.4
	v-4.9h1.5v5c0,0.8-0.3,1.6-0.8,2.2C191.4,35.4,190.5,35.7,189.7,35.6L189.7,35.6z M194.5,35.5v-7.9h1.7l2.4,5.7l2.4-5.7h1.7v7.9
	h-1.3v-3.9v-2.2l-0.2,0.6l-2,5h-1.2l-2-5l-0.2-0.6v2.3v3.9L194.5,35.5z M204.4,35.5v-7.9h4.8v1.1h-3.3v2h3.1V32h-3.1v2.4h3.4v1.2
	H204.4z M210.6,35.5v-7.9h1.6l1.7,2.6l1.6,2.4l0.3,0.4c0.1,0.2,0.2,0.3,0.3,0.4c0-1.2,0-1.9,0-1.9v-4h1.3v7.9h-1.6l-3.6-5.5
	l-0.3-0.4c0,1,0,1.6,0,2v4L210.6,35.5z M220.4,35.5v-6.7h-2.3v-1.2h6v1.2h-2.3v6.7H220.4z M227.6,35.5l2.9-7.9h1.6l2.9,7.9h-1.5
	l-0.8-2.2h-2.8l-0.8,2.2H227.6z M230.3,32.2h2l-1-3.2L230.3,32.2z M238,35.6c-0.9,0-1.8-0.2-2.5-0.6l0.4-1.2
	c0.3,0.2,0.7,0.3,1.1,0.5c0.4,0.1,0.8,0.2,1.1,0.2c0.4,0,0.7-0.1,1.1-0.3c0.2-0.2,0.4-0.5,0.4-0.9c0-0.5-0.3-0.8-1-1l-0.4-0.1
	l-0.6-0.2l-0.4-0.1c-1-0.2-1.6-1.1-1.6-2.1c0-0.7,0.3-1.3,0.8-1.7c0.6-0.4,1.3-0.6,2-0.6c0.9,0,1.7,0.2,2.4,0.6l-0.4,1.1
	c-0.6-0.3-1.3-0.5-1.9-0.5c-0.3,0-0.7,0.1-1,0.2c-0.2,0.2-0.4,0.5-0.4,0.8c0,0.4,0.3,0.8,0.6,0.9l0.6,0.2l0.6,0.2
	c0.6,0.2,1.1,0.5,1.6,0.9c0.3,0.4,0.5,0.9,0.5,1.5c0,0.7-0.2,1.3-0.7,1.7C239.5,35.4,238.8,35.7,238,35.6L238,35.6z M247,35.5
	l-2.8-7.9h1.5l1.7,4.9c0.1,0.2,0.2,0.7,0.4,1.5c0-0.1,0.1-0.3,0.2-0.7s0.2-0.7,0.2-0.8l0.8-2.4c0.5-1.5,0.8-2.3,0.8-2.4h1.5
	l-2.8,7.9L247,35.5z M250.7,35.5l2.9-7.9h1.6l2.9,7.9h-1.5l-0.8-2.2h-2.8l-0.8,2.2H250.7z M253.4,32.2h2l-1-3.2L253.4,32.2z
	 M258.8,35.5v-7.9h1.5v6.7h3.3v1.2H258.8z M267.7,35.6c-0.9,0.1-1.7-0.2-2.4-0.8c-0.6-0.6-0.8-1.4-0.8-2.2v-5h1.5v4.9
	c0,0.5,0.1,1,0.4,1.4c0.4,0.3,0.8,0.5,1.3,0.5c0.5,0,1-0.1,1.3-0.5c0.3-0.4,0.5-0.9,0.4-1.4v-4.9h1.5v5c0,0.8-0.2,1.6-0.8,2.2
	C269.4,35.4,268.5,35.7,267.7,35.6L267.7,35.6z M272.5,35.5v-7.9h4.8v1.1H274v2h3.1V32H274v2.4h3.4l-0.1,1.2H272.5z M280.9,35.6
	c-0.9,0-1.8-0.2-2.5-0.7l0.4-1.2c0.3,0.2,0.7,0.3,1.1,0.5c0.4,0.1,0.8,0.2,1.1,0.2c0.4,0,0.7-0.1,1-0.3c0.2-0.2,0.4-0.5,0.4-0.9
	c0-0.5-0.3-0.8-1-1l-0.4-0.1l-0.6-0.2l-0.4-0.1c-0.9-0.2-1.6-1.1-1.6-2.1c0-0.6,0.2-1.3,0.8-1.6c0.6-0.4,1.3-0.6,2-0.6
	c0.9,0,1.7,0.2,2.5,0.6l-0.4,1.1c-0.6-0.3-1.3-0.5-2-0.5c-0.3,0-0.7,0.1-1,0.2c-0.2,0.2-0.4,0.5-0.4,0.8c0,0.4,0.3,0.8,0.6,0.9
	l0.6,0.2l0.6,0.2c0.6,0.2,1.1,0.5,1.5,0.9c0.3,0.4,0.5,0.9,0.5,1.5c0,0.7-0.3,1.3-0.8,1.7C282.3,35.5,281.6,35.7,280.9,35.6
	L280.9,35.6z"/>
<path class="st1" d="M129.5,75c-0.1,0-0.2,0-0.2-0.1c-0.1-0.1-0.1-0.2-0.1-0.3l-0.2-2.6l0,0c0-0.1,0-0.2,0.1-0.2
	c0.1-0.1,0.1-0.1,0.2-0.1h0.7c0.1,0,0.2,0,0.2,0.1c0.1,0.1,0.1,0.2,0.1,0.2l0,0l-0.2,2.5c0,0.1,0,0.2-0.1,0.3
	c-0.1,0.1-0.2,0.1-0.2,0.1L129.5,75z M131.9,75c-0.1,0-0.2,0-0.2-0.1c-0.1-0.1-0.1-0.2-0.1-0.3l-0.2-2.6l0,0c0-0.1,0-0.2,0.1-0.2
	c0.1-0.1,0.1-0.1,0.2-0.1h0.7c0.1,0,0.2,0,0.2,0.1c0.1,0.1,0.1,0.2,0.1,0.2l0,0l-0.2,2.5c0,0.1,0,0.2-0.1,0.3
	c-0.1,0.1-0.2,0.1-0.2,0.1L131.9,75z"/>
<path class="st1" d="M315.8,75c-0.1,0-0.2,0-0.2-0.1c-0.1-0.1-0.1-0.2-0.1-0.3l-0.2-2.6l0,0c0-0.1,0-0.2,0.1-0.2
	c0.1-0.1,0.1-0.1,0.2-0.1h0.7c0.1,0,0.2,0,0.2,0.1c0.1,0.1,0.1,0.2,0.1,0.2l0,0l-0.2,2.5c0,0.1,0,0.2-0.1,0.3
	c-0.1,0.1-0.2,0.1-0.2,0.1L315.8,75z M318.3,75c-0.1,0-0.2,0-0.2-0.1c-0.1-0.1-0.1-0.2-0.1-0.3l-0.2-2.6l0,0c0-0.1,0-0.2,0.1-0.2
	c0.1-0.1,0.1-0.1,0.2-0.1h0.7c0.1,0,0.2,0,0.2,0.1c0.1,0.1,0.1,0.2,0.1,0.2l0,0l-0.2,2.5c0,0.1,0,0.2-0.1,0.3
	c-0.1,0.1-0.2,0.1-0.2,0.1L318.3,75z"/>
</svg>
